<svg xmlns="http://www.w3.org/2000/svg" xmlns:xlink="http://www.w3.org/1999/xlink" contentStyleType="text/css" data-diagram-type="CLASS" height="784px" preserveAspectRatio="none" style="width:2738px;height:784px;background:#FFFFFF;" version="1.1" viewBox="0 0 2738 784" width="2738px" zoomAndPan="magnify"><?plantuml 1.2026.4beta2?><defs/><g><!--cluster Domain Models--><g class="cluster" data-qualified-name="Domain Models" data-source-line="3" id="ent0002"><path d="M8.5,383.67 L130.6123,383.67 A3.75,3.75 0 0 1 133.1123,386.17 L140.1123,405.9669 L710.5,405.9669 A2.5,2.5 0 0 1 713,408.4669 L713,767.44 A2.5,2.5 0 0 1 710.5,769.94 L8.5,769.94 A2.5,2.5 0 0 1 6,767.44 L6,386.17 A2.5,2.5 0 0 1 8.5,383.67" fill="none" style="stroke:#000000;stroke-width:1.5;"/><line style="stroke:#000000;stroke-width:1.5;" x1="6" x2="140.1123" y1="405.9669" y2="405.9669"/><text fill="#000000" font-family="sans-serif" font-size="14" font-weight="700" lengthAdjust="spacing" textLength="121.1123" x="10" y="398.6651">Domain Models</text></g><!--cluster Authentication--><g class="cluster" data-qualified-name="Authentication" data-source-line="41" id="ent0008"><path d="M1449.5,383.67 L1567.7363,383.67 A3.75,3.75 0 0 1 1570.2363,386.17 L1577.2363,405.9669 L1893.5,405.9669 A2.5,2.5 0 0 1 1896,408.4669 L1896,742.99 A2.5,2.5 0 0 1 1893.5,745.49 L1449.5,745.49 A2.5,2.5 0 0 1 1447,742.99 L1447,386.17 A2.5,2.5 0 0 1 1449.5,383.67" fill="none" style="stroke:#000000;stroke-width:1.5;"/><line style="stroke:#000000;stroke-width:1.5;" x1="1447" x2="1577.2363" y1="405.9669" y2="405.9669"/><text fill="#000000" font-family="sans-serif" font-size="14" font-weight="700" lengthAdjust="spacing" textLength="117.2363" x="1451" y="398.6651">Authentication</text></g><!--cluster UI Components--><g class="cluster" data-qualified-name="UI Components" data-source-line="63" id="ent0012"><path d="M36.5,6 L157.5254,6 A3.75,3.75 0 0 1 160.0254,8.5 L167.0254,28.2969 L1368.5,28.2969 A2.5,2.5 0 0 1 1371,30.7969 L1371,357.17 A2.5,2.5 0 0 1 1368.5,359.67 L36.5,359.67 A2.5,2.5 0 0 1 34,357.17 L34,8.5 A2.5,2.5 0 0 1 36.5,6" fill="none" style="stroke:#000000;stroke-width:1.5;"/><line style="stroke:#000000;stroke-width:1.5;" x1="34" x2="167.0254" y1="28.2969" y2="28.2969"/><text fill="#000000" font-family="sans-serif" font-size="14" font-weight="700" lengthAdjust="spacing" textLength="120.0254" x="38" y="20.9951">UI Components</text></g><!--cluster Custom Hooks--><g class="cluster" data-qualified-name="Custom Hooks" data-source-line="85" id="ent0021"><path d="M1397.5,260.67 L1511.4434,260.67 A3.75,3.75 0 0 1 1513.9434,263.17 L1520.9434,282.9669 L2720.5,282.9669 A2.5,2.5 0 0 1 2723,285.4669 L2723,357.17 A2.5,2.5 0 0 1 2720.5,359.67 L1397.5,359.67 A2.5,2.5 0 0 1 1395,357.17 L1395,263.17 A2.5,2.5 0 0 1 1397.5,260.67" fill="none" style="stroke:#000000;stroke-width:1.5;"/><line style="stroke:#000000;stroke-width:1.5;" x1="1395" x2="1520.9434" y1="282.9669" y2="282.9669"/><text fill="#000000" font-family="sans-serif" font-size="14" font-weight="700" lengthAdjust="spacing" textLength="112.9434" x="1399" y="275.6651">Custom Hooks</text></g><!--class Product--><g class="entity" data-qualified-name="Domain Models.Product" data-source-line="4" id="ent0003"><rect fill="#F1F1F1" height="145.7813" rx="2.5" ry="2.5" style="stroke:#181818;stroke-width:0.5;" width="198.3682" x="21.82" y="608.16"/><ellipse cx="89.8991" cy="624.16" fill="#ADD1B2" rx="11" ry="11" style="stroke:#181818;stroke-width:1;"/><path d="M92.8679,629.8006 Q92.2897,630.0975 91.6491,630.2381 Q91.0085,630.3944 90.3054,630.3944 Q87.8054,630.3944 86.4772,628.7538 Q85.1647,627.0975 85.1647,623.9725 Q85.1647,620.8475 86.4772,619.1913 Q87.8054,617.535 90.3054,617.535 Q91.0085,617.535 91.6491,617.6913 Q92.3054,617.8475 92.8679,618.1444 L92.8679,620.8631 Q92.2429,620.285 91.6491,620.0194 Q91.0554,619.7381 90.4304,619.7381 Q89.0866,619.7381 88.3991,620.8163 Q87.7116,621.8788 87.7116,623.9725 Q87.7116,626.0663 88.3991,627.1444 Q89.0866,628.2069 90.4304,628.2069 Q91.0554,628.2069 91.6491,627.9413 Q92.2429,627.66 92.8679,627.0819 L92.8679,629.8006 Z " fill="#000000"/><text fill="#000000" font-family="sans-serif" font-size="14" lengthAdjust="spacing" textLength="53.71" x="110.3991" y="629.0067">Product</text><line style="stroke:#181818;stroke-width:0.5;" x1="22.82" x2="219.1882" y1="640.16" y2="640.16"/><text fill="#000000" font-family="sans-serif" font-size="14" lengthAdjust="spacing" textLength="78.3125" x="27.82" y="657.1551">+id : string</text><text fill="#000000" font-family="sans-serif" font-size="14" lengthAdjust="spacing" textLength="105.2393" x="27.82" y="673.452">+name : string</text><text fill="#000000" font-family="sans-serif" font-size="14" lengthAdjust="spacing" textLength="114.8301" x="27.82" y="689.7489">+price : number</text><text fill="#000000" font-family="sans-serif" font-size="14" lengthAdjust="spacing" textLength="186.3682" x="27.82" y="706.0457">+currency : CurrencyCode</text><text fill="#000000" font-family="sans-serif" font-size="14" lengthAdjust="spacing" textLength="136.4658" x="27.82" y="722.3426">+imageUrl? : string</text><text fill="#000000" font-family="sans-serif" font-size="14" lengthAdjust="spacing" textLength="111.5625" x="27.82" y="738.6395">+emoji? : string</text><line style="stroke:#181818;stroke-width:0.5;" x1="22.82" x2="219.1882" y1="745.9413" y2="745.9413"/></g><!--class ProductSection--><g class="entity" data-qualified-name="Domain Models.ProductSection" data-source-line="13" id="ent0004"><rect fill="#F1F1F1" height="113.1875" rx="2.5" ry="2.5" style="stroke:#181818;stroke-width:0.5;" width="163.4297" x="22.29" y="426.82"/><ellipse cx="48.8573" cy="442.82" fill="#ADD1B2" rx="11" ry="11" style="stroke:#181818;stroke-width:1;"/><path d="M51.826,448.4606 Q51.2479,448.7575 50.6073,448.8981 Q49.9667,449.0544 49.2635,449.0544 Q46.7635,449.0544 45.4354,447.4138 Q44.1229,445.7575 44.1229,442.6325 Q44.1229,439.5075 45.4354,437.8513 Q46.7635,436.195 49.2635,436.195 Q49.9667,436.195 50.6073,436.3513 Q51.2635,436.5075 51.826,436.8044 L51.826,439.5231 Q51.201,438.945 50.6073,438.6794 Q50.0135,438.3981 49.3885,438.3981 Q48.0448,438.3981 47.3573,439.4763 Q46.6698,440.5388 46.6698,442.6325 Q46.6698,444.7263 47.3573,445.8044 Q48.0448,446.8669 49.3885,446.8669 Q50.0135,446.8669 50.6073,446.6013 Q51.201,446.32 51.826,445.7419 L51.826,448.4606 Z " fill="#000000"/><text fill="#000000" font-family="sans-serif" font-size="14" lengthAdjust="spacing" textLength="105.7246" x="65.4278" y="447.6667">ProductSection</text><line style="stroke:#181818;stroke-width:0.5;" x1="23.29" x2="184.7197" y1="458.82" y2="458.82"/><text fill="#000000" font-family="sans-serif" font-size="14" lengthAdjust="spacing" textLength="78.3125" x="28.29" y="475.8151">+id : string</text><text fill="#000000" font-family="sans-serif" font-size="14" lengthAdjust="spacing" textLength="92.9072" x="28.29" y="492.112">+title : string</text><text fill="#000000" font-family="sans-serif" font-size="14" lengthAdjust="spacing" textLength="125.0703" x="28.29" y="508.4089">+ctaLabel : string</text><text fill="#000000" font-family="sans-serif" font-size="14" lengthAdjust="spacing" textLength="151.4297" x="28.29" y="524.7057">+products : Product[]</text><line style="stroke:#181818;stroke-width:0.5;" x1="23.29" x2="184.7197" y1="532.0075" y2="532.0075"/></g><!--class CartItem--><g class="entity" data-qualified-name="Domain Models.CartItem" data-source-line="20" id="ent0005"><rect fill="#F1F1F1" height="129.4844" rx="2.5" ry="2.5" style="stroke:#181818;stroke-width:0.5;" width="153.5107" x="220.24" y="418.67"/><ellipse cx="262.2589" cy="434.67" fill="#ADD1B2" rx="11" ry="11" style="stroke:#181818;stroke-width:1;"/><path d="M265.2276,440.3106 Q264.6495,440.6075 264.0089,440.7481 Q263.3683,440.9044 262.6651,440.9044 Q260.1651,440.9044 258.837,439.2638 Q257.5245,437.6075 257.5245,434.4825 Q257.5245,431.3575 258.837,429.7013 Q260.1651,428.045 262.6651,428.045 Q263.3683,428.045 264.0089,428.2013 Q264.6651,428.3575 265.2276,428.6544 L265.2276,431.3731 Q264.6026,430.795 264.0089,430.5294 Q263.4151,430.2481 262.7901,430.2481 Q261.4464,430.2481 260.7589,431.3263 Q260.0714,432.3888 260.0714,434.4825 Q260.0714,436.5763 260.7589,437.6544 Q261.4464,438.7169 262.7901,438.7169 Q263.4151,438.7169 264.0089,438.4513 Q264.6026,438.17 265.2276,437.5919 L265.2276,440.3106 Z " fill="#000000"/><text fill="#000000" font-family="sans-serif" font-size="14" lengthAdjust="spacing" textLength="61.4688" x="282.2631" y="439.5167">CartItem</text><line style="stroke:#181818;stroke-width:0.5;" x1="221.24" x2="372.7507" y1="450.67" y2="450.67"/><text fill="#000000" font-family="sans-serif" font-size="14" lengthAdjust="spacing" textLength="78.3125" x="226.24" y="467.6651">+id : string</text><text fill="#000000" font-family="sans-serif" font-size="14" lengthAdjust="spacing" textLength="105.2393" x="226.24" y="483.962">+name : string</text><text fill="#000000" font-family="sans-serif" font-size="14" lengthAdjust="spacing" textLength="138.3525" x="226.24" y="500.2589">+quantity : number</text><text fill="#000000" font-family="sans-serif" font-size="14" lengthAdjust="spacing" textLength="141.5107" x="226.24" y="516.5557">+unitPrice : number</text><text fill="#000000" font-family="sans-serif" font-size="14" lengthAdjust="spacing" textLength="129.0352" x="226.24" y="532.8526">+imageUrl : string</text><line style="stroke:#181818;stroke-width:0.5;" x1="221.24" x2="372.7507" y1="540.1544" y2="540.1544"/></g><!--class NavItem--><g class="entity" data-qualified-name="Domain Models.NavItem" data-source-line="28" id="ent0006"><rect fill="#F1F1F1" height="96.8906" rx="2.5" ry="2.5" style="stroke:#181818;stroke-width:0.5;" width="111.3945" x="408.3" y="434.97"/><ellipse cx="432.3848" cy="450.97" fill="#ADD1B2" rx="11" ry="11" style="stroke:#181818;stroke-width:1;"/><path d="M435.3536,456.6106 Q434.7754,456.9075 434.1348,457.0481 Q433.4942,457.2044 432.7911,457.2044 Q430.2911,457.2044 428.9629,455.5638 Q427.6504,453.9075 427.6504,450.7825 Q427.6504,447.6575 428.9629,446.0013 Q430.2911,444.345 432.7911,444.345 Q433.4942,444.345 434.1348,444.5013 Q434.7911,444.6575 435.3536,444.9544 L435.3536,447.6731 Q434.7286,447.095 434.1348,446.8294 Q433.5411,446.5481 432.9161,446.5481 Q431.5723,446.5481 430.8848,447.6263 Q430.1973,448.6888 430.1973,450.7825 Q430.1973,452.8763 430.8848,453.9544 Q431.5723,455.0169 432.9161,455.0169 Q433.5411,455.0169 434.1348,454.7513 Q434.7286,454.47 435.3536,453.8919 L435.3536,456.6106 Z " fill="#000000"/><text fill="#000000" font-family="sans-serif" font-size="14" lengthAdjust="spacing" textLength="59.2061" x="448.4037" y="455.8167">NavItem</text><line style="stroke:#181818;stroke-width:0.5;" x1="409.3" x2="518.6945" y1="466.97" y2="466.97"/><text fill="#000000" font-family="sans-serif" font-size="14" lengthAdjust="spacing" textLength="78.3125" x="414.3" y="483.9651">+id : string</text><text fill="#000000" font-family="sans-serif" font-size="14" lengthAdjust="spacing" textLength="99.3945" x="414.3" y="500.262">+label : string</text><text fill="#000000" font-family="sans-serif" font-size="14" lengthAdjust="spacing" textLength="93.707" x="414.3" y="516.5589">+href : string</text><line style="stroke:#181818;stroke-width:0.5;" x1="409.3" x2="518.6945" y1="523.8606" y2="523.8606"/></g><!--class HeroSlide--><g class="entity" data-qualified-name="Domain Models.HeroSlide" data-source-line="34" id="ent0007"><rect fill="#F1F1F1" height="96.8906" rx="2.5" ry="2.5" style="stroke:#181818;stroke-width:0.5;" width="142.1084" x="554.95" y="434.97"/><ellipse cx="589.0662" cy="450.97" fill="#ADD1B2" rx="11" ry="11" style="stroke:#181818;stroke-width:1;"/><path d="M592.035,456.6106 Q591.4568,456.9075 590.8162,457.0481 Q590.1756,457.2044 589.4725,457.2044 Q586.9725,457.2044 585.6443,455.5638 Q584.3318,453.9075 584.3318,450.7825 Q584.3318,447.6575 585.6443,446.0013 Q586.9725,444.345 589.4725,444.345 Q590.1756,444.345 590.8162,444.5013 Q591.4725,444.6575 592.035,444.9544 L592.035,447.6731 Q591.41,447.095 590.8162,446.8294 Q590.2225,446.5481 589.5975,446.5481 Q588.2537,446.5481 587.5662,447.6263 Q586.8787,448.6888 586.8787,450.7825 Q586.8787,452.8763 587.5662,453.9544 Q588.2537,455.0169 589.5975,455.0169 Q590.2225,455.0169 590.8162,454.7513 Q591.41,454.47 592.035,453.8919 L592.035,456.6106 Z " fill="#000000"/><text fill="#000000" font-family="sans-serif" font-size="14" lengthAdjust="spacing" textLength="67.6279" x="607.3143" y="455.8167">HeroSlide</text><line style="stroke:#181818;stroke-width:0.5;" x1="555.95" x2="696.0584" y1="466.97" y2="466.97"/><text fill="#000000" font-family="sans-serif" font-size="14" lengthAdjust="spacing" textLength="78.3125" x="560.95" y="483.9651">+id : string</text><text fill="#000000" font-family="sans-serif" font-size="14" lengthAdjust="spacing" textLength="129.0352" x="560.95" y="500.262">+imageUrl : string</text><text fill="#000000" font-family="sans-serif" font-size="14" lengthAdjust="spacing" textLength="130.1084" x="560.95" y="516.5589">+ariaLabel : string</text><line style="stroke:#181818;stroke-width:0.5;" x1="555.95" x2="696.0584" y1="523.8606" y2="523.8606"/></g><!--class AuthFormState--><g class="entity" data-qualified-name="Authentication.AuthFormState" data-source-line="42" id="ent0009"><rect fill="#F1F1F1" height="129.4844" rx="2.5" ry="2.5" style="stroke:#181818;stroke-width:0.5;" width="197.1514" x="1463.42" y="418.67"/><ellipse cx="1505.0913" cy="434.67" fill="#ADD1B2" rx="11" ry="11" style="stroke:#181818;stroke-width:1;"/><path d="M1508.06,440.3106 Q1507.4819,440.6075 1506.8413,440.7481 Q1506.2007,440.9044 1505.4975,440.9044 Q1502.9975,440.9044 1501.6694,439.2638 Q1500.3569,437.6075 1500.3569,434.4825 Q1500.3569,431.3575 1501.6694,429.7013 Q1502.9975,428.045 1505.4975,428.045 Q1506.2007,428.045 1506.8413,428.2013 Q1507.4975,428.3575 1508.06,428.6544 L1508.06,431.3731 Q1507.435,430.795 1506.8413,430.5294 Q1506.2475,430.2481 1505.6225,430.2481 Q1504.2788,430.2481 1503.5913,431.3263 Q1502.9038,432.3888 1502.9038,434.4825 Q1502.9038,436.5763 1503.5913,437.6544 Q1504.2788,438.7169 1505.6225,438.7169 Q1506.2475,438.7169 1506.8413,438.4513 Q1507.435,438.17 1508.06,437.5919 L1508.06,440.3106 Z " fill="#000000"/><text fill="#000000" font-family="sans-serif" font-size="14" lengthAdjust="spacing" textLength="105.8818" x="1525.0182" y="439.5167">AuthFormState</text><line style="stroke:#181818;stroke-width:0.5;" x1="1464.42" x2="1659.5714" y1="450.67" y2="450.67"/><text fill="#000000" font-family="sans-serif" font-size="14" lengthAdjust="spacing" textLength="128.4199" x="1469.42" y="467.6651">+fullName : string</text><text fill="#000000" font-family="sans-serif" font-size="14" lengthAdjust="spacing" textLength="104.1455" x="1469.42" y="483.962">+email : string</text><text fill="#000000" font-family="sans-serif" font-size="14" lengthAdjust="spacing" textLength="132.248" x="1469.42" y="500.2589">+password : string</text><text fill="#000000" font-family="sans-serif" font-size="14" lengthAdjust="spacing" textLength="185.1514" x="1469.42" y="516.5557">+confirmPassword : string</text><text fill="#000000" font-family="sans-serif" font-size="14" lengthAdjust="spacing" textLength="172.1357" x="1469.42" y="532.8526">+acceptTerms : boolean</text><line style="stroke:#181818;stroke-width:0.5;" x1="1464.42" x2="1659.5714" y1="540.1544" y2="540.1544"/></g><!--class AuthContext--><g class="entity" data-qualified-name="Authentication.AuthContext" data-source-line="50" id="ent0010"><rect fill="#F1F1F1" height="96.8906" rx="2.5" ry="2.5" style="stroke:#181818;stroke-width:0.5;" width="184.4502" x="1695.77" y="434.97"/><ellipse cx="1739.8161" cy="450.97" fill="#ADD1B2" rx="11" ry="11" style="stroke:#181818;stroke-width:1;"/><path d="M1742.7848,456.6106 Q1742.2067,456.9075 1741.5661,457.0481 Q1740.9255,457.2044 1740.2223,457.2044 Q1737.7223,457.2044 1736.3942,455.5638 Q1735.0817,453.9075 1735.0817,450.7825 Q1735.0817,447.6575 1736.3942,446.0013 Q1737.7223,444.345 1740.2223,444.345 Q1740.9255,444.345 1741.5661,444.5013 Q1742.2223,444.6575 1742.7848,444.9544 L1742.7848,447.6731 Q1742.1598,447.095 1741.5661,446.8294 Q1740.9723,446.5481 1740.3473,446.5481 Q1739.0036,446.5481 1738.3161,447.6263 Q1737.6286,448.6888 1737.6286,450.7825 Q1737.6286,452.8763 1738.3161,453.9544 Q1739.0036,455.0169 1740.3473,455.0169 Q1740.9723,455.0169 1741.5661,454.7513 Q1742.1598,454.47 1742.7848,453.8919 L1742.7848,456.6106 Z " fill="#000000"/><text fill="#000000" font-family="sans-serif" font-size="14" lengthAdjust="spacing" textLength="87.9033" x="1760.2708" y="455.8167">AuthContext</text><line style="stroke:#181818;stroke-width:0.5;" x1="1696.77" x2="1879.2202" y1="466.97" y2="466.97"/><text fill="#000000" font-family="sans-serif" font-size="14" lengthAdjust="spacing" textLength="126.9365" x="1701.77" y="483.9651">+user : User | null</text><text fill="#000000" font-family="sans-serif" font-size="14" lengthAdjust="spacing" textLength="132.8906" x="1701.77" y="500.262">+loading : boolean</text><line style="stroke:#181818;stroke-width:0.5;" x1="1696.77" x2="1879.2202" y1="507.5638" y2="507.5638"/><text fill="#000000" font-family="sans-serif" font-size="14" lengthAdjust="spacing" textLength="172.4502" x="1701.77" y="524.5589">+onAuthStateChanged()</text></g><!--class FirebaseAuth--><g class="entity" data-qualified-name="Authentication.FirebaseAuth" data-source-line="56" id="ent0011"><rect fill="#F1F1F1" height="96.8906" rx="2.5" ry="2.5" style="stroke:#181818;stroke-width:0.5;" width="275.8535" x="1604.07" y="632.6"/><ellipse cx="1691.4982" cy="648.6" fill="#ADD1B2" rx="11" ry="11" style="stroke:#181818;stroke-width:1;"/><path d="M1694.467,654.2406 Q1693.8888,654.5375 1693.2482,654.6781 Q1692.6076,654.8344 1691.9045,654.8344 Q1689.4045,654.8344 1688.0763,653.1938 Q1686.7638,651.5375 1686.7638,648.4125 Q1686.7638,645.2875 1688.0763,643.6313 Q1689.4045,641.975 1691.9045,641.975 Q1692.6076,641.975 1693.2482,642.1313 Q1693.9045,642.2875 1694.467,642.5844 L1694.467,645.3031 Q1693.842,644.725 1693.2482,644.4594 Q1692.6545,644.1781 1692.0295,644.1781 Q1690.6857,644.1781 1689.9982,645.2563 Q1689.3107,646.3188 1689.3107,648.4125 Q1689.3107,650.5063 1689.9982,651.5844 Q1690.6857,652.6469 1692.0295,652.6469 Q1692.6545,652.6469 1693.2482,652.3813 Q1693.842,652.1 1694.467,651.5219 L1694.467,654.2406 Z " fill="#000000"/><text fill="#000000" font-family="sans-serif" font-size="14" lengthAdjust="spacing" textLength="92.4971" x="1711.9982" y="653.4467">FirebaseAuth</text><line style="stroke:#181818;stroke-width:0.5;" x1="1605.07" x2="1878.9235" y1="664.6" y2="664.6"/><line style="stroke:#181818;stroke-width:0.5;" x1="1605.07" x2="1878.9235" y1="672.6" y2="672.6"/><text fill="#000000" font-family="sans-serif" font-size="14" lengthAdjust="spacing" textLength="229.1406" x="1610.07" y="689.5951">+signInWithEmailAndPassword()</text><text fill="#000000" font-family="sans-serif" font-size="14" lengthAdjust="spacing" textLength="263.8535" x="1610.07" y="705.892">+createUserWithEmailAndPassword()</text><text fill="#000000" font-family="sans-serif" font-size="14" lengthAdjust="spacing" textLength="116.0674" x="1610.07" y="722.1889">+updateProfile()</text></g><!--class MainStorefrontFeature--><g class="entity" data-qualified-name="UI Components.MainStorefrontFeature" data-source-line="64" id="ent0013"><rect fill="#F1F1F1" height="194.6719" rx="2.5" ry="2.5" style="stroke:#181818;stroke-width:0.5;" width="269.9609" x="1085.02" y="41"/><ellipse cx="1136.5903" cy="57" fill="#ADD1B2" rx="11" ry="11" style="stroke:#181818;stroke-width:1;"/><path d="M1139.5591,62.6406 Q1138.9809,62.9375 1138.3403,63.0781 Q1137.6997,63.2344 1136.9966,63.2344 Q1134.4966,63.2344 1133.1684,61.5938 Q1131.8559,59.9375 1131.8559,56.8125 Q1131.8559,53.6875 1133.1684,52.0313 Q1134.4966,50.375 1136.9966,50.375 Q1137.6997,50.375 1138.3403,50.5313 Q1138.9966,50.6875 1139.5591,50.9844 L1139.5591,53.7031 Q1138.9341,53.125 1138.3403,52.8594 Q1137.7466,52.5781 1137.1216,52.5781 Q1135.7778,52.5781 1135.0903,53.6563 Q1134.4028,54.7188 1134.4028,56.8125 Q1134.4028,58.9063 1135.0903,59.9844 Q1135.7778,61.0469 1137.1216,61.0469 Q1137.7466,61.0469 1138.3403,60.7813 Q1138.9341,60.5 1139.5591,59.9219 L1139.5591,62.6406 Z " fill="#000000"/><text fill="#000000" font-family="sans-serif" font-size="14" lengthAdjust="spacing" textLength="158.3203" x="1157.0903" y="61.8467">MainStorefrontFeature</text><line style="stroke:#181818;stroke-width:0.5;" x1="1086.02" x2="1353.9809" y1="73" y2="73"/><text fill="#000000" font-family="sans-serif" font-size="14" lengthAdjust="spacing" textLength="155.2168" x="1091.02" y="89.9951">-pageView : PageView</text><text fill="#000000" font-family="sans-serif" font-size="14" lengthAdjust="spacing" textLength="161.6563" x="1091.02" y="106.292">-isMenuOpen : boolean</text><text fill="#000000" font-family="sans-serif" font-size="14" lengthAdjust="spacing" textLength="152.8174" x="1091.02" y="122.5889">-isCartOpen : boolean</text><text fill="#000000" font-family="sans-serif" font-size="14" lengthAdjust="spacing" textLength="148.2168" x="1091.02" y="138.8857">-searchQuery : string</text><text fill="#000000" font-family="sans-serif" font-size="14" lengthAdjust="spacing" textLength="257.9609" x="1091.02" y="155.1826">-chatMessages : ChatMessageSeed[]</text><line style="stroke:#181818;stroke-width:0.5;" x1="1086.02" x2="1353.9809" y1="162.4844" y2="162.4844"/><text fill="#000000" font-family="sans-serif" font-size="14" lengthAdjust="spacing" textLength="134.4971" x="1091.02" y="179.4795">+navigateToView()</text><text fill="#000000" font-family="sans-serif" font-size="14" lengthAdjust="spacing" textLength="141.7979" x="1091.02" y="195.7764">+handleNavAction()</text><text fill="#000000" font-family="sans-serif" font-size="14" lengthAdjust="spacing" textLength="152.749" x="1091.02" y="212.0732">+handleChatSubmit()</text><text fill="#000000" font-family="sans-serif" font-size="14" lengthAdjust="spacing" textLength="168.3691" x="1091.02" y="228.3701">+handleDesignSubmit()</text></g><!--class StorefrontHeader--><g class="entity" data-qualified-name="UI Components.StorefrontHeader" data-source-line="76" id="ent0014"><rect fill="#F1F1F1" height="48" rx="2.5" ry="2.5" style="stroke:#181818;stroke-width:0.5;" width="153.8984" x="50.05" y="295.67"/><ellipse cx="65.05" cy="311.67" fill="#ADD1B2" rx="11" ry="11" style="stroke:#181818;stroke-width:1;"/><path d="M68.0188,317.3106 Q67.4406,317.6075 66.8,317.7481 Q66.1594,317.9044 65.4563,317.9044 Q62.9563,317.9044 61.6281,316.2638 Q60.3156,314.6075 60.3156,311.4825 Q60.3156,308.3575 61.6281,306.7013 Q62.9563,305.045 65.4563,305.045 Q66.1594,305.045 66.8,305.2013 Q67.4563,305.3575 68.0188,305.6544 L68.0188,308.3731 Q67.3938,307.795 66.8,307.5294 Q66.2063,307.2481 65.5813,307.2481 Q64.2375,307.2481 63.55,308.3263 Q62.8625,309.3888 62.8625,311.4825 Q62.8625,313.5763 63.55,314.6544 Q64.2375,315.7169 65.5813,315.7169 Q66.2063,315.7169 66.8,315.4513 Q67.3938,315.17 68.0188,314.5919 L68.0188,317.3106 Z " fill="#000000"/><text fill="#000000" font-family="sans-serif" font-size="14" lengthAdjust="spacing" textLength="121.8984" x="79.05" y="316.5167">StorefrontHeader</text><line style="stroke:#181818;stroke-width:0.5;" x1="51.05" x2="202.9484" y1="327.67" y2="327.67"/><line style="stroke:#181818;stroke-width:0.5;" x1="51.05" x2="202.9484" y1="335.67" y2="335.67"/></g><!--class StorefrontHome--><g class="entity" data-qualified-name="UI Components.StorefrontHome" data-source-line="77" id="ent0015"><rect fill="#F1F1F1" height="48" rx="2.5" ry="2.5" style="stroke:#181818;stroke-width:0.5;" width="144.2666" x="457.87" y="295.67"/><ellipse cx="472.87" cy="311.67" fill="#ADD1B2" rx="11" ry="11" style="stroke:#181818;stroke-width:1;"/><path d="M475.8388,317.3106 Q475.2606,317.6075 474.62,317.7481 Q473.9794,317.9044 473.2763,317.9044 Q470.7763,317.9044 469.4481,316.2638 Q468.1356,314.6075 468.1356,311.4825 Q468.1356,308.3575 469.4481,306.7013 Q470.7763,305.045 473.2763,305.045 Q473.9794,305.045 474.62,305.2013 Q475.2763,305.3575 475.8388,305.6544 L475.8388,308.3731 Q475.2138,307.795 474.62,307.5294 Q474.0263,307.2481 473.4013,307.2481 Q472.0575,307.2481 471.37,308.3263 Q470.6825,309.3888 470.6825,311.4825 Q470.6825,313.5763 471.37,314.6544 Q472.0575,315.7169 473.4013,315.7169 Q474.0263,315.7169 474.62,315.4513 Q475.2138,315.17 475.8388,314.5919 L475.8388,317.3106 Z " fill="#000000"/><text fill="#000000" font-family="sans-serif" font-size="14" lengthAdjust="spacing" textLength="112.2666" x="486.87" y="316.5167">StorefrontHome</text><line style="stroke:#181818;stroke-width:0.5;" x1="458.87" x2="601.1366" y1="327.67" y2="327.67"/><line style="stroke:#181818;stroke-width:0.5;" x1="458.87" x2="601.1366" y1="335.67" y2="335.67"/></g><!--class StorefrontAuth--><g class="entity" data-qualified-name="UI Components.StorefrontAuth" data-source-line="78" id="ent0016"><rect fill="#F1F1F1" height="48" rx="2.5" ry="2.5" style="stroke:#181818;stroke-width:0.5;" width="135.7354" x="637.13" y="295.67"/><ellipse cx="652.13" cy="311.67" fill="#ADD1B2" rx="11" ry="11" style="stroke:#181818;stroke-width:1;"/><path d="M655.0988,317.3106 Q654.5206,317.6075 653.88,317.7481 Q653.2394,317.9044 652.5363,317.9044 Q650.0363,317.9044 648.7081,316.2638 Q647.3956,314.6075 647.3956,311.4825 Q647.3956,308.3575 648.7081,306.7013 Q650.0363,305.045 652.5363,305.045 Q653.2394,305.045 653.88,305.2013 Q654.5363,305.3575 655.0988,305.6544 L655.0988,308.3731 Q654.4738,307.795 653.88,307.5294 Q653.2863,307.2481 652.6613,307.2481 Q651.3175,307.2481 650.63,308.3263 Q649.9425,309.3888 649.9425,311.4825 Q649.9425,313.5763 650.63,314.6544 Q651.3175,315.7169 652.6613,315.7169 Q653.2863,315.7169 653.88,315.4513 Q654.4738,315.17 655.0988,314.5919 L655.0988,317.3106 Z " fill="#000000"/><text fill="#000000" font-family="sans-serif" font-size="14" lengthAdjust="spacing" textLength="103.7354" x="666.13" y="316.5167">StorefrontAuth</text><line style="stroke:#181818;stroke-width:0.5;" x1="638.13" x2="771.8654" y1="327.67" y2="327.67"/><line style="stroke:#181818;stroke-width:0.5;" x1="638.13" x2="771.8654" y1="335.67" y2="335.67"/></g><!--class StorefrontCartDrawer--><g class="entity" data-qualified-name="UI Components.StorefrontCartDrawer" data-source-line="79" id="ent0017"><rect fill="#F1F1F1" height="48" rx="2.5" ry="2.5" style="stroke:#181818;stroke-width:0.5;" width="183.457" x="239.27" y="295.67"/><ellipse cx="254.27" cy="311.67" fill="#ADD1B2" rx="11" ry="11" style="stroke:#181818;stroke-width:1;"/><path d="M257.2388,317.3106 Q256.6606,317.6075 256.02,317.7481 Q255.3794,317.9044 254.6763,317.9044 Q252.1763,317.9044 250.8481,316.2638 Q249.5356,314.6075 249.5356,311.4825 Q249.5356,308.3575 250.8481,306.7013 Q252.1763,305.045 254.6763,305.045 Q255.3794,305.045 256.02,305.2013 Q256.6763,305.3575 257.2388,305.6544 L257.2388,308.3731 Q256.6138,307.795 256.02,307.5294 Q255.4263,307.2481 254.8013,307.2481 Q253.4575,307.2481 252.77,308.3263 Q252.0825,309.3888 252.0825,311.4825 Q252.0825,313.5763 252.77,314.6544 Q253.4575,315.7169 254.8013,315.7169 Q255.4263,315.7169 256.02,315.4513 Q256.6138,315.17 257.2388,314.5919 L257.2388,317.3106 Z " fill="#000000"/><text fill="#000000" font-family="sans-serif" font-size="14" lengthAdjust="spacing" textLength="151.457" x="268.27" y="316.5167">StorefrontCartDrawer</text><line style="stroke:#181818;stroke-width:0.5;" x1="240.27" x2="421.727" y1="327.67" y2="327.67"/><line style="stroke:#181818;stroke-width:0.5;" x1="240.27" x2="421.727" y1="335.67" y2="335.67"/></g><!--class StorefrontChat--><g class="entity" data-qualified-name="UI Components.StorefrontChat" data-source-line="80" id="ent0018"><rect fill="#F1F1F1" height="48" rx="2.5" ry="2.5" style="stroke:#181818;stroke-width:0.5;" width="135.6396" x="808.18" y="295.67"/><ellipse cx="823.18" cy="311.67" fill="#ADD1B2" rx="11" ry="11" style="stroke:#181818;stroke-width:1;"/><path d="M826.1488,317.3106 Q825.5706,317.6075 824.93,317.7481 Q824.2894,317.9044 823.5863,317.9044 Q821.0863,317.9044 819.7581,316.2638 Q818.4456,314.6075 818.4456,311.4825 Q818.4456,308.3575 819.7581,306.7013 Q821.0863,305.045 823.5863,305.045 Q824.2894,305.045 824.93,305.2013 Q825.5863,305.3575 826.1488,305.6544 L826.1488,308.3731 Q825.5238,307.795 824.93,307.5294 Q824.3363,307.2481 823.7113,307.2481 Q822.3675,307.2481 821.68,308.3263 Q820.9925,309.3888 820.9925,311.4825 Q820.9925,313.5763 821.68,314.6544 Q822.3675,315.7169 823.7113,315.7169 Q824.3363,315.7169 824.93,315.4513 Q825.5238,315.17 826.1488,314.5919 L826.1488,317.3106 Z " fill="#000000"/><text fill="#000000" font-family="sans-serif" font-size="14" lengthAdjust="spacing" textLength="103.6396" x="837.18" y="316.5167">StorefrontChat</text><line style="stroke:#181818;stroke-width:0.5;" x1="809.18" x2="942.8196" y1="327.67" y2="327.67"/><line style="stroke:#181818;stroke-width:0.5;" x1="809.18" x2="942.8196" y1="335.67" y2="335.67"/></g><!--class StorefrontDesignModal--><g class="entity" data-qualified-name="UI Components.StorefrontDesignModal" data-source-line="81" id="ent0019"><rect fill="#F1F1F1" height="48" rx="2.5" ry="2.5" style="stroke:#181818;stroke-width:0.5;" width="193.2598" x="978.37" y="295.67"/><ellipse cx="993.37" cy="311.67" fill="#ADD1B2" rx="11" ry="11" style="stroke:#181818;stroke-width:1;"/><path d="M996.3388,317.3106 Q995.7606,317.6075 995.12,317.7481 Q994.4794,317.9044 993.7763,317.9044 Q991.2763,317.9044 989.9481,316.2638 Q988.6356,314.6075 988.6356,311.4825 Q988.6356,308.3575 989.9481,306.7013 Q991.2763,305.045 993.7763,305.045 Q994.4794,305.045 995.12,305.2013 Q995.7763,305.3575 996.3388,305.6544 L996.3388,308.3731 Q995.7138,307.795 995.12,307.5294 Q994.5263,307.2481 993.9013,307.2481 Q992.5575,307.2481 991.87,308.3263 Q991.1825,309.3888 991.1825,311.4825 Q991.1825,313.5763 991.87,314.6544 Q992.5575,315.7169 993.9013,315.7169 Q994.5263,315.7169 995.12,315.4513 Q995.7138,315.17 996.3388,314.5919 L996.3388,317.3106 Z " fill="#000000"/><text fill="#000000" font-family="sans-serif" font-size="14" lengthAdjust="spacing" textLength="161.2598" x="1007.37" y="316.5167">StorefrontDesignModal</text><line style="stroke:#181818;stroke-width:0.5;" x1="979.37" x2="1170.6298" y1="327.67" y2="327.67"/><line style="stroke:#181818;stroke-width:0.5;" x1="979.37" x2="1170.6298" y1="335.67" y2="335.67"/></g><!--class StorefrontFooter--><g class="entity" data-qualified-name="UI Components.StorefrontFooter" data-source-line="82" id="ent0020"><rect fill="#F1F1F1" height="48" rx="2.5" ry="2.5" style="stroke:#181818;stroke-width:0.5;" width="147.9648" x="1207.02" y="295.67"/><ellipse cx="1222.02" cy="311.67" fill="#ADD1B2" rx="11" ry="11" style="stroke:#181818;stroke-width:1;"/><path d="M1224.9888,317.3106 Q1224.4106,317.6075 1223.77,317.7481 Q1223.1294,317.9044 1222.4263,317.9044 Q1219.9263,317.9044 1218.5981,316.2638 Q1217.2856,314.6075 1217.2856,311.4825 Q1217.2856,308.3575 1218.5981,306.7013 Q1219.9263,305.045 1222.4263,305.045 Q1223.1294,305.045 1223.77,305.2013 Q1224.4263,305.3575 1224.9888,305.6544 L1224.9888,308.3731 Q1224.3638,307.795 1223.77,307.5294 Q1223.1763,307.2481 1222.5513,307.2481 Q1221.2075,307.2481 1220.52,308.3263 Q1219.8325,309.3888 1219.8325,311.4825 Q1219.8325,313.5763 1220.52,314.6544 Q1221.2075,315.7169 1222.5513,315.7169 Q1223.1763,315.7169 1223.77,315.4513 Q1224.3638,315.17 1224.9888,314.5919 L1224.9888,317.3106 Z " fill="#000000"/><text fill="#000000" font-family="sans-serif" font-size="14" lengthAdjust="spacing" textLength="115.9648" x="1236.02" y="316.5167">StorefrontFooter</text><line style="stroke:#181818;stroke-width:0.5;" x1="1208.02" x2="1353.9848" y1="327.67" y2="327.67"/><line style="stroke:#181818;stroke-width:0.5;" x1="1208.02" x2="1353.9848" y1="335.67" y2="335.67"/></g><!--class usePageViewTransition--><g class="entity" data-qualified-name="Custom Hooks.usePageViewTransition" data-source-line="86" id="ent0022"><rect fill="#F1F1F1" height="48" rx="2.5" ry="2.5" style="stroke:#181818;stroke-width:0.5;" width="194.5928" x="1410.7" y="295.67"/><ellipse cx="1425.7" cy="311.67" fill="#ADD1B2" rx="11" ry="11" style="stroke:#181818;stroke-width:1;"/><path d="M1428.6688,317.3106 Q1428.0906,317.6075 1427.45,317.7481 Q1426.8094,317.9044 1426.1063,317.9044 Q1423.6063,317.9044 1422.2781,316.2638 Q1420.9656,314.6075 1420.9656,311.4825 Q1420.9656,308.3575 1422.2781,306.7013 Q1423.6063,305.045 1426.1063,305.045 Q1426.8094,305.045 1427.45,305.2013 Q1428.1063,305.3575 1428.6688,305.6544 L1428.6688,308.3731 Q1428.0438,307.795 1427.45,307.5294 Q1426.8563,307.2481 1426.2313,307.2481 Q1424.8875,307.2481 1424.2,308.3263 Q1423.5125,309.3888 1423.5125,311.4825 Q1423.5125,313.5763 1424.2,314.6544 Q1424.8875,315.7169 1426.2313,315.7169 Q1426.8563,315.7169 1427.45,315.4513 Q1428.0438,315.17 1428.6688,314.5919 L1428.6688,317.3106 Z " fill="#000000"/><text fill="#000000" font-family="sans-serif" font-size="14" lengthAdjust="spacing" textLength="162.5928" x="1439.7" y="316.5167">usePageViewTransition</text><line style="stroke:#181818;stroke-width:0.5;" x1="1411.7" x2="1604.2928" y1="327.67" y2="327.67"/><line style="stroke:#181818;stroke-width:0.5;" x1="1411.7" x2="1604.2928" y1="335.67" y2="335.67"/></g><!--class useCartDrawerAnimation--><g class="entity" data-qualified-name="Custom Hooks.useCartDrawerAnimation" data-source-line="87" id="ent0023"><rect fill="#F1F1F1" height="48" rx="2.5" ry="2.5" style="stroke:#181818;stroke-width:0.5;" width="208.6885" x="1640.66" y="295.67"/><ellipse cx="1655.66" cy="311.67" fill="#ADD1B2" rx="11" ry="11" style="stroke:#181818;stroke-width:1;"/><path d="M1658.6288,317.3106 Q1658.0506,317.6075 1657.41,317.7481 Q1656.7694,317.9044 1656.0663,317.9044 Q1653.5663,317.9044 1652.2381,316.2638 Q1650.9256,314.6075 1650.9256,311.4825 Q1650.9256,308.3575 1652.2381,306.7013 Q1653.5663,305.045 1656.0663,305.045 Q1656.7694,305.045 1657.41,305.2013 Q1658.0663,305.3575 1658.6288,305.6544 L1658.6288,308.3731 Q1658.0038,307.795 1657.41,307.5294 Q1656.8163,307.2481 1656.1913,307.2481 Q1654.8475,307.2481 1654.16,308.3263 Q1653.4725,309.3888 1653.4725,311.4825 Q1653.4725,313.5763 1654.16,314.6544 Q1654.8475,315.7169 1656.1913,315.7169 Q1656.8163,315.7169 1657.41,315.4513 Q1658.0038,315.17 1658.6288,314.5919 L1658.6288,317.3106 Z " fill="#000000"/><text fill="#000000" font-family="sans-serif" font-size="14" lengthAdjust="spacing" textLength="176.6885" x="1669.66" y="316.5167">useCartDrawerAnimation</text><line style="stroke:#181818;stroke-width:0.5;" x1="1641.66" x2="1848.3485" y1="327.67" y2="327.67"/><line style="stroke:#181818;stroke-width:0.5;" x1="1641.66" x2="1848.3485" y1="335.67" y2="335.67"/></g><!--class useHeaderScrollVisibility--><g class="entity" data-qualified-name="Custom Hooks.useHeaderScrollVisibility" data-source-line="88" id="ent0024"><rect fill="#F1F1F1" height="48" rx="2.5" ry="2.5" style="stroke:#181818;stroke-width:0.5;" width="205.4209" x="1884.29" y="295.67"/><ellipse cx="1899.29" cy="311.67" fill="#ADD1B2" rx="11" ry="11" style="stroke:#181818;stroke-width:1;"/><path d="M1902.2588,317.3106 Q1901.6806,317.6075 1901.04,317.7481 Q1900.3994,317.9044 1899.6963,317.9044 Q1897.1963,317.9044 1895.8681,316.2638 Q1894.5556,314.6075 1894.5556,311.4825 Q1894.5556,308.3575 1895.8681,306.7013 Q1897.1963,305.045 1899.6963,305.045 Q1900.3994,305.045 1901.04,305.2013 Q1901.6963,305.3575 1902.2588,305.6544 L1902.2588,308.3731 Q1901.6338,307.795 1901.04,307.5294 Q1900.4463,307.2481 1899.8213,307.2481 Q1898.4775,307.2481 1897.79,308.3263 Q1897.1025,309.3888 1897.1025,311.4825 Q1897.1025,313.5763 1897.79,314.6544 Q1898.4775,315.7169 1899.8213,315.7169 Q1900.4463,315.7169 1901.04,315.4513 Q1901.6338,315.17 1902.2588,314.5919 L1902.2588,317.3106 Z " fill="#000000"/><text fill="#000000" font-family="sans-serif" font-size="14" lengthAdjust="spacing" textLength="173.4209" x="1913.29" y="316.5167">useHeaderScrollVisibility</text><line style="stroke:#181818;stroke-width:0.5;" x1="1885.29" x2="2088.7109" y1="327.67" y2="327.67"/><line style="stroke:#181818;stroke-width:0.5;" x1="1885.29" x2="2088.7109" y1="335.67" y2="335.67"/></g><!--class useHomeSectionReveal--><g class="entity" data-qualified-name="Custom Hooks.useHomeSectionReveal" data-source-line="89" id="ent0025"><rect fill="#F1F1F1" height="48" rx="2.5" ry="2.5" style="stroke:#181818;stroke-width:0.5;" width="197.8467" x="2125.08" y="295.67"/><ellipse cx="2140.08" cy="311.67" fill="#ADD1B2" rx="11" ry="11" style="stroke:#181818;stroke-width:1;"/><path d="M2143.0488,317.3106 Q2142.4706,317.6075 2141.83,317.7481 Q2141.1894,317.9044 2140.4863,317.9044 Q2137.9863,317.9044 2136.6581,316.2638 Q2135.3456,314.6075 2135.3456,311.4825 Q2135.3456,308.3575 2136.6581,306.7013 Q2137.9863,305.045 2140.4863,305.045 Q2141.1894,305.045 2141.83,305.2013 Q2142.4863,305.3575 2143.0488,305.6544 L2143.0488,308.3731 Q2142.4238,307.795 2141.83,307.5294 Q2141.2363,307.2481 2140.6113,307.2481 Q2139.2675,307.2481 2138.58,308.3263 Q2137.8925,309.3888 2137.8925,311.4825 Q2137.8925,313.5763 2138.58,314.6544 Q2139.2675,315.7169 2140.6113,315.7169 Q2141.2363,315.7169 2141.83,315.4513 Q2142.4238,315.17 2143.0488,314.5919 L2143.0488,317.3106 Z " fill="#000000"/><text fill="#000000" font-family="sans-serif" font-size="14" lengthAdjust="spacing" textLength="165.8467" x="2154.08" y="316.5167">useHomeSectionReveal</text><line style="stroke:#181818;stroke-width:0.5;" x1="2126.08" x2="2321.9267" y1="327.67" y2="327.67"/><line style="stroke:#181818;stroke-width:0.5;" x1="2126.08" x2="2321.9267" y1="335.67" y2="335.67"/></g><!--class useActiveNavTracking--><g class="entity" data-qualified-name="Custom Hooks.useActiveNavTracking" data-source-line="90" id="ent0026"><rect fill="#F1F1F1" height="48" rx="2.5" ry="2.5" style="stroke:#181818;stroke-width:0.5;" width="188.0098" x="2358" y="295.67"/><ellipse cx="2373" cy="311.67" fill="#ADD1B2" rx="11" ry="11" style="stroke:#181818;stroke-width:1;"/><path d="M2375.9688,317.3106 Q2375.3906,317.6075 2374.75,317.7481 Q2374.1094,317.9044 2373.4063,317.9044 Q2370.9063,317.9044 2369.5781,316.2638 Q2368.2656,314.6075 2368.2656,311.4825 Q2368.2656,308.3575 2369.5781,306.7013 Q2370.9063,305.045 2373.4063,305.045 Q2374.1094,305.045 2374.75,305.2013 Q2375.4063,305.3575 2375.9688,305.6544 L2375.9688,308.3731 Q2375.3438,307.795 2374.75,307.5294 Q2374.1563,307.2481 2373.5313,307.2481 Q2372.1875,307.2481 2371.5,308.3263 Q2370.8125,309.3888 2370.8125,311.4825 Q2370.8125,313.5763 2371.5,314.6544 Q2372.1875,315.7169 2373.5313,315.7169 Q2374.1563,315.7169 2374.75,315.4513 Q2375.3438,315.17 2375.9688,314.5919 L2375.9688,317.3106 Z " fill="#000000"/><text fill="#000000" font-family="sans-serif" font-size="14" lengthAdjust="spacing" textLength="156.0098" x="2387" y="316.5167">useActiveNavTracking</text><line style="stroke:#181818;stroke-width:0.5;" x1="2359" x2="2545.0098" y1="327.67" y2="327.67"/><line style="stroke:#181818;stroke-width:0.5;" x1="2359" x2="2545.0098" y1="335.67" y2="335.67"/></g><!--class useAuthForm--><g class="entity" data-qualified-name="Custom Hooks.useAuthForm" data-source-line="91" id="ent0027"><rect fill="#F1F1F1" height="48" rx="2.5" ry="2.5" style="stroke:#181818;stroke-width:0.5;" width="125.6045" x="2581.2" y="295.67"/><ellipse cx="2596.2" cy="311.67" fill="#ADD1B2" rx="11" ry="11" style="stroke:#181818;stroke-width:1;"/><path d="M2599.1688,317.3106 Q2598.5906,317.6075 2597.95,317.7481 Q2597.3094,317.9044 2596.6063,317.9044 Q2594.1063,317.9044 2592.7781,316.2638 Q2591.4656,314.6075 2591.4656,311.4825 Q2591.4656,308.3575 2592.7781,306.7013 Q2594.1063,305.045 2596.6063,305.045 Q2597.3094,305.045 2597.95,305.2013 Q2598.6063,305.3575 2599.1688,305.6544 L2599.1688,308.3731 Q2598.5438,307.795 2597.95,307.5294 Q2597.3563,307.2481 2596.7313,307.2481 Q2595.3875,307.2481 2594.7,308.3263 Q2594.0125,309.3888 2594.0125,311.4825 Q2594.0125,313.5763 2594.7,314.6544 Q2595.3875,315.7169 2596.7313,315.7169 Q2597.3563,315.7169 2597.95,315.4513 Q2598.5438,315.17 2599.1688,314.5919 L2599.1688,317.3106 Z " fill="#000000"/><text fill="#000000" font-family="sans-serif" font-size="14" lengthAdjust="spacing" textLength="93.6045" x="2610.2" y="316.5167">useAuthForm</text><line style="stroke:#181818;stroke-width:0.5;" x1="2582.2" x2="2705.8045" y1="327.67" y2="327.67"/><line style="stroke:#181818;stroke-width:0.5;" x1="2582.2" x2="2705.8045" y1="335.67" y2="335.67"/></g><!--link MainStorefrontFeature to StorefrontHeader--><g class="link" data-entity-1="ent0013" data-entity-2="ent0014" data-link-type="dependency" data-source-line="94" id="lnk28"><path codeLine="94" d="M1084.72,146.49 C849.81,160.28 376.73,194.41 222,252.67 C196.25,262.37 175.4837,276.7783 157.4437,291.6183" fill="none" id="MainStorefrontFeature-to-StorefrontHeader" style="stroke:#181818;stroke-width:1;"/><polygon fill="#181818" points="152.81,295.43,162.3016,292.8015,156.6714,292.2536,157.2193,286.6233,152.81,295.43" style="stroke:#181818;stroke-width:1;"/></g><!--link MainStorefrontFeature to StorefrontHome--><g class="link" data-entity-1="ent0013" data-entity-2="ent0015" data-link-type="dependency" data-source-line="95" id="lnk29"><path codeLine="95" d="M1084.8,147.69 C959.79,159.34 771.08,187.06 620,252.67 C596.01,263.09 576.8644,276.9974 559.8044,291.4774" fill="none" id="MainStorefrontFeature-to-StorefrontHome" style="stroke:#181818;stroke-width:1;"/><polygon fill="#181818" points="555.23,295.36,564.68,292.5857,559.042,292.1245,559.5032,286.4865,555.23,295.36" style="stroke:#181818;stroke-width:1;"/></g><!--link MainStorefrontFeature to StorefrontAuth--><g class="link" data-entity-1="ent0013" data-entity-2="ent0016" data-link-type="dependency" data-source-line="96" id="lnk30"><path codeLine="96" d="M1084.67,160.83 C997.7,178.04 884,207.01 791,252.67 C768.53,263.71 750.7272,277.1524 734.4472,291.3124" fill="none" id="MainStorefrontFeature-to-StorefrontAuth" style="stroke:#181818;stroke-width:1;"/><polygon fill="#181818" points="729.92,295.25,739.3358,292.3617,733.6926,291.9686,734.0856,286.3255,729.92,295.25" style="stroke:#181818;stroke-width:1;"/></g><!--link MainStorefrontFeature to StorefrontCartDrawer--><g class="link" data-entity-1="ent0013" data-entity-2="ent0017" data-link-type="dependency" data-source-line="97" id="lnk31"><path codeLine="97" d="M1084.63,142.74 C925.89,150.4 656.87,174.89 440,252.67 C411.68,262.83 387.6089,277.3843 366.6489,292.0243" fill="none" id="MainStorefrontFeature-to-StorefrontCartDrawer" style="stroke:#181818;stroke-width:1;"/><polygon fill="#181818" points="361.73,295.46,371.3989,293.5857,365.8291,292.5969,366.8179,287.0271,361.73,295.46" style="stroke:#181818;stroke-width:1;"/></g><!--link MainStorefrontFeature to StorefrontChat--><g class="link" data-entity-1="ent0013" data-entity-2="ent0018" data-link-type="dependency" data-source-line="98" id="lnk32"><path codeLine="98" d="M1084.76,191.02 C1043.94,208.59 999.71,229.66 961,252.67 C940.12,265.09 923.1309,278.0588 906.9309,291.6188" fill="none" id="MainStorefrontFeature-to-StorefrontChat" style="stroke:#181818;stroke-width:1;"/><polygon fill="#181818" points="902.33,295.47,911.7988,292.7606,906.1641,292.2607,906.664,286.626,902.33,295.47" style="stroke:#181818;stroke-width:1;"/></g><!--link MainStorefrontFeature to StorefrontDesignModal--><g class="link" data-entity-1="ent0013" data-entity-2="ent0019" data-link-type="dependency" data-source-line="99" id="lnk33"><path codeLine="99" d="M1141.77,236.09 C1123.85,258.26 1110.1616,275.1836 1097.6016,290.7236" fill="none" id="MainStorefrontFeature-to-StorefrontDesignModal" style="stroke:#181818;stroke-width:1;"/><polygon fill="#181818" points="1093.83,295.39,1102.5983,290.9048,1096.973,291.5013,1096.3764,285.876,1093.83,295.39" style="stroke:#181818;stroke-width:1;"/></g><!--link MainStorefrontFeature to StorefrontFooter--><g class="link" data-entity-1="ent0013" data-entity-2="ent0020" data-link-type="dependency" data-source-line="100" id="lnk34"><path codeLine="100" d="M1252.91,236.09 C1260.45,258.26 1265.8565,274.1701 1271.1465,289.7101" fill="none" id="MainStorefrontFeature-to-StorefrontFooter" style="stroke:#181818;stroke-width:1;"/><polygon fill="#181818" points="1273.08,295.39,1273.9663,285.5811,1271.4687,290.6567,1266.3931,288.1591,1273.08,295.39" style="stroke:#181818;stroke-width:1;"/></g><!--link MainStorefrontFeature to usePageViewTransition--><g class="link" data-entity-1="ent0013" data-entity-2="ent0022" data-link-type="dependency" data-source-line="102" id="lnk35"><path codeLine="102" d="M1355.15,223.49 C1397.38,249.79 1435.5463,273.5591 1465.2163,292.0291" fill="none" id="MainStorefrontFeature-to-usePageViewTransition" style="stroke:#181818;stroke-width:1;"/><polygon fill="#181818" points="1470.31,295.2,1464.7834,287.0479,1466.0653,292.5576,1460.5556,293.8395,1470.31,295.2" style="stroke:#181818;stroke-width:1;"/></g><!--link MainStorefrontFeature to useCartDrawerAnimation--><g class="link" data-entity-1="ent0013" data-entity-2="ent0023" data-link-type="dependency" data-source-line="103" id="lnk36"><path codeLine="103" d="M1355.45,169.46 C1434.85,189.07 1536.28,217.53 1623,252.67 C1652.24,264.52 1678.3208,278.5008 1701.8808,292.2808" fill="none" id="MainStorefrontFeature-to-useCartDrawerAnimation" style="stroke:#181818;stroke-width:1;"/><polygon fill="#181818" points="1707.06,295.31,1701.3107,287.3134,1702.744,292.7856,1697.2718,294.2189,1707.06,295.31" style="stroke:#181818;stroke-width:1;"/></g><!--link MainStorefrontFeature to useHeaderScrollVisibility--><g class="link" data-entity-1="ent0013" data-entity-2="ent0024" data-link-type="dependency" data-source-line="104" id="lnk37"><path codeLine="104" d="M1355.23,149.98 C1488.44,163.47 1696.22,192.62 1867,252.67 C1897.06,263.24 1923.4307,277.6682 1946.5907,292.0282" fill="none" id="MainStorefrontFeature-to-useHeaderScrollVisibility" style="stroke:#181818;stroke-width:1;"/><polygon fill="#181818" points="1951.69,295.19,1946.1488,287.0478,1947.4406,292.5552,1941.9332,293.8469,1951.69,295.19" style="stroke:#181818;stroke-width:1;"/></g><!--link MainStorefrontFeature to useHomeSectionReveal--><g class="link" data-entity-1="ent0013" data-entity-2="ent0025" data-link-type="dependency" data-source-line="105" id="lnk38"><path codeLine="105" d="M1355.42,140.58 C1532.53,145.79 1850.43,167.55 2107,252.67 C2136.99,262.63 2162.9789,277.2607 2185.5389,291.9207" fill="none" id="MainStorefrontFeature-to-useHomeSectionReveal" style="stroke:#181818;stroke-width:1;"/><polygon fill="#181818" points="2190.57,295.19,2185.2029,286.932,2186.3774,292.4656,2180.8439,293.6401,2190.57,295.19" style="stroke:#181818;stroke-width:1;"/></g><!--link MainStorefrontFeature to useActiveNavTracking--><g class="link" data-entity-1="ent0013" data-entity-2="ent0026" data-link-type="dependency" data-source-line="106" id="lnk39"><path codeLine="106" d="M1355.05,145.75 C1611.67,159.13 2160.2,193.75 2340,252.67 C2369.38,262.3 2394.4505,277.1239 2416.0005,291.9839" fill="none" id="MainStorefrontFeature-to-useActiveNavTracking" style="stroke:#181818;stroke-width:1;"/><polygon fill="#181818" points="2420.94,295.39,2415.8015,286.9879,2416.8238,292.5516,2411.26,293.5739,2420.94,295.39" style="stroke:#181818;stroke-width:1;"/></g><!--link MainStorefrontFeature to useAuthForm--><g class="link" data-entity-1="ent0013" data-entity-2="ent0027" data-link-type="dependency" data-source-line="107" id="lnk40"><path codeLine="107" d="M1355.34,140.57 C1651.43,144.91 2347.56,164.47 2564,252.67 C2586.84,261.98 2603.9188,275.976 2618.7888,290.926" fill="none" id="MainStorefrontFeature-to-useAuthForm" style="stroke:#181818;stroke-width:1;"/><polygon fill="#181818" points="2623.02,295.18,2619.5091,285.9782,2619.494,291.635,2613.8371,291.6198,2623.02,295.18" style="stroke:#181818;stroke-width:1;"/></g><!--link StorefrontAuth to AuthFormState--><g class="link" data-entity-1="ent0016" data-entity-2="ent0009" data-link-type="dependency" data-source-line="109" id="lnk41"><path codeLine="109" d="M740.95,344.02 C755.89,352.72 773.74,361.88 791,367.67 C1023.68,445.8 1307.6785,470.501 1456.9785,478.451" fill="none" id="StorefrontAuth-to-AuthFormState" style="stroke:#181818;stroke-width:1;"/><polygon fill="#181818" points="1462.97,478.77,1454.1954,474.2971,1457.9771,478.5041,1453.77,482.2858,1462.97,478.77" style="stroke:#181818;stroke-width:1;"/></g><!--link useAuthForm to FirebaseAuth--><g class="link" data-entity-1="ent0027" data-entity-2="ent0011" data-link-type="dependency" data-source-line="110" id="lnk42"><path codeLine="110" d="M2607.26,344 C2593.91,352.01 2578.52,360.71 2564,367.67 C2330.68,479.57 2051.6621,578.3327 1885.9021,633.5827" fill="none" id="useAuthForm-to-FirebaseAuth" style="stroke:#181818;stroke-width:1;"/><polygon fill="#181818" points="1880.21,635.48,1890.013,636.4289,1884.9534,633.8989,1887.4834,628.8393,1880.21,635.48" style="stroke:#181818;stroke-width:1;"/></g><!--link AuthContext to FirebaseAuth--><g class="link" data-entity-1="ent0010" data-entity-2="ent0011" data-link-type="dependency" data-source-line="111" id="lnk43"><path codeLine="111" d="M1776.75,532.27 C1769.59,562.7 1761.7319,596.1089 1754.5919,626.5089" fill="none" id="AuthContext-to-FirebaseAuth" style="stroke:#181818;stroke-width:1;"/><polygon fill="#181818" points="1753.22,632.35,1759.1719,624.503,1754.3632,627.4825,1751.3838,622.6738,1753.22,632.35" style="stroke:#181818;stroke-width:1;"/></g><!--reverse link ProductSection to Product--><g class="link" data-entity-1="ent0004" data-entity-2="ent0003" data-link-type="composition" data-source-line="113" id="lnk44"><path codeLine="113" d="M109.9118,552.4347 C111.7418,573.4347 112.8,585.64 114.73,607.9" fill="none" id="ProductSection-backto-Product" style="stroke:#181818;stroke-width:1;"/><polygon fill="#181818" points="108.87,540.48,105.406,546.8046,109.9118,552.4347,113.3758,546.1101,108.87,540.48" style="stroke:#181818;stroke-width:1;"/><text fill="#000000" font-family="sans-serif" font-size="13" lengthAdjust="spacing" textLength="8.271" x="100.9857" y="560.02">1</text><text fill="#000000" font-family="sans-serif" font-size="13" lengthAdjust="spacing" textLength="6.5" x="107.8417" y="597.0344">*</text></g><!--link StorefrontHome to HeroSlide--><g class="link" data-entity-1="ent0015" data-entity-2="ent0007" data-link-type="dependency" data-source-line="114" id="lnk45"><path codeLine="114" d="M543.75,343.85 C557.75,367.43 576.7976,399.5204 594.5676,429.4604" fill="none" id="StorefrontHome-to-HeroSlide" style="stroke:#181818;stroke-width:1;"/><polygon fill="#181818" points="597.63,434.62,596.4762,424.839,595.078,430.3203,589.5967,428.9221,597.63,434.62" style="stroke:#181818;stroke-width:1;"/></g><!--link StorefrontCartDrawer to CartItem--><g class="link" data-entity-1="ent0017" data-entity-2="ent0005" data-link-type="dependency" data-source-line="115" id="lnk46"><path codeLine="115" d="M326.13,343.85 C322.03,363.33 317.2142,386.2483 311.6842,412.5583" fill="none" id="StorefrontCartDrawer-to-CartItem" style="stroke:#181818;stroke-width:1;"/><polygon fill="#181818" points="310.45,418.43,316.2157,410.4452,311.4785,413.5369,308.3868,408.7997,310.45,418.43" style="stroke:#181818;stroke-width:1;"/></g><?plantuml-src bLPBRzD04BxxLwnoWg98SEK0YboYHYAbuBOS48VrUf8isOVPHqg1_dTc_MYyjcE5KvoPRxzvV3DhsprN9JLK4YQejGld3C-zWnNJAkE_WRnEafAoFTq2cLrgIRaYQrs0i3Fo9o7rAN9ZTE6Pgoo4lE85UKiiCgbjRL1KGizK6iw2JNcPWwbjp1i3YZsYEMqUKupLa4hCuSw8zpqYaFe7ZunFIJ-n39ZZMftCpt4d-WaoHp_I7CGWxuhHehaX__OzZfbIurOEvFzquwUd2fDux3N4A-vkHXhLzk94rTVqC9c06AbhPs1pWkuAZCu4B-0auLW-QAQ63tlub3nrHchXtGwmT4Q3GDsP2fwbDZ9pr3r7tdWXheVj0vpBWL18yg1DFrMSwmqtycRSInc3qjs2aK7WN6i1LCNT27cbMZduzJplte91-5tu-Oj22T7qMTC2gICcD6iLEAgwqXrLMoXUl8nZBBc1d5e8k3Q8vLkrKb-vstq8rIvKqTPGdGwb6K3AaCKKofS5ed1sDrn04xYhoDsAf5gMMg4iqPAlSVSpft5E39Q_n5ZUjCBCIpnxp-4Xh4NpM3kuNOFodqfGlJQW9spAcCS2DMptsODvZFMPinrrQx0MGmI1qkFV3A2eDh5Qi0FVOf6tEkJH5ewjBWJWRYogoo0s1wRCvvAxs7u9eUyTJqUbOpEkW1RLRWuSMiA8EUWwOWxzk3JqOPGgP3XYhXF4AvcA4UzIQuTiNNrJRvsMv4hhVIGl3d6htAsXolBGfAxtcDr2uSBttNKFCcQq4FVSyfmBlD0Y13QZkOc_m04w2QCpY788wc1mjgy5FpgRko0KCZw6y_cxeHvdGOD2vm0hpSu1TbGy2nvqFGVOLVeSVAFz17PSyadys11C7ZWn5jDd1eCo2H-EpZIy7QOa5hVoHs-Tf8EklDrxEUc-20REfFVbCNip8nVpEPbTpDhlXYGUmehZ-LMRZCrJ1Ma_B_u1?></g></svg>