<svg xmlns="http://www.w3.org/2000/svg" xmlns:xlink="http://www.w3.org/1999/xlink" contentStyleType="text/css" data-diagram-type="DESCRIPTION" height="1062px" preserveAspectRatio="none" style="width:693px;height:1062px;background:#FFFFFF;" version="1.1" viewBox="0 0 693 1062" width="693px" zoomAndPan="magnify"><?plantuml 1.2026.4beta2?><defs/><g><!--cluster AYBUStore--><g class="cluster" data-qualified-name="AYBUStore" data-source-line="10" id="ent0006"><rect fill="none" height="891" rx="2.5" ry="2.5" style="stroke:#181818;stroke-width:1;" width="518.86" x="160.88" y="97.15"/><text fill="#000000" font-family="sans-serif" font-size="14" font-weight="700" lengthAdjust="spacing" textLength="85.8047" x="377.4077" y="112.1451">AYBUStore</text></g><!--entity UC1--><g class="entity" data-qualified-name="AYBUStore.UC1" data-source-line="11" id="ent0007"><ellipse cx="273.0854" cy="299.1511" fill="#F1F1F1" rx="96.2054" ry="21.6411" style="stroke:#181818;stroke-width:0.5;"/><text fill="#000000" font-family="sans-serif" font-size="14" lengthAdjust="spacing" textLength="167.6582" x="189.2563" y="303.7995">Browse Product Catalog</text></g><!--entity UC2--><g class="entity" data-qualified-name="AYBUStore.UC2" data-source-line="12" id="ent0008"><ellipse cx="273.0865" cy="523.1513" fill="#F1F1F1" rx="73.0065" ry="17.0013" style="stroke:#181818;stroke-width:0.5;"/><text fill="#000000" font-family="sans-serif" font-size="14" lengthAdjust="spacing" textLength="113.8594" x="216.1568" y="527.7997">Search Products</text></g><!--entity UC3--><g class="entity" data-qualified-name="AYBUStore.UC3" data-source-line="13" id="ent0009"><ellipse cx="273.0923" cy="595.1545" fill="#F1F1F1" rx="86.0223" ry="19.6045" style="stroke:#181818;stroke-width:0.5;"/><text fill="#000000" font-family="sans-serif" font-size="14" lengthAdjust="spacing" textLength="144.6758" x="200.7544" y="599.8029">View Product Details</text></g><!--entity UC4--><g class="entity" data-qualified-name="AYBUStore.UC4" data-source-line="14" id="ent0010"><ellipse cx="273.0916" cy="664.1536" fill="#F1F1F1" rx="59.5016" ry="14.5236" style="stroke:#181818;stroke-width:0.5;"/><text fill="#000000" font-family="sans-serif" font-size="14" lengthAdjust="spacing" textLength="79.9053" x="233.1389" y="668.8021">Add to Cart</text></g><!--entity UC5--><g class="entity" data-qualified-name="AYBUStore.UC5" data-source-line="15" id="ent0011"><ellipse cx="273.086" cy="733.1512" fill="#F1F1F1" rx="84.656" ry="19.3312" style="stroke:#181818;stroke-width:0.5;"/><text fill="#000000" font-family="sans-serif" font-size="14" lengthAdjust="spacing" textLength="141.5313" x="202.3204" y="737.7996">Checkout / Payment</text></g><!--entity UC6--><g class="entity" data-qualified-name="AYBUStore.UC6" data-source-line="16" id="ent0012"><ellipse cx="273.0854" cy="805.1531" fill="#F1F1F1" rx="75.3154" ry="17.4631" style="stroke:#181818;stroke-width:0.5;"/><text fill="#000000" font-family="sans-serif" font-size="14" lengthAdjust="spacing" textLength="119.4922" x="213.3393" y="809.8015">Register Account</text></g><!--entity UC7--><g class="entity" data-qualified-name="AYBUStore.UC7" data-source-line="17" id="ent0013"><ellipse cx="579.0241" cy="297.1548" fill="#F1F1F1" rx="84.7241" ry="19.3448" style="stroke:#181818;stroke-width:0.5;"/><text fill="#000000" font-family="sans-serif" font-size="14" lengthAdjust="spacing" textLength="141.6885" x="508.1799" y="301.8033">Login / Authenticate</text></g><!--entity UC8--><g class="entity" data-qualified-name="AYBUStore.UC8" data-source-line="18" id="ent0014"><ellipse cx="579.0183" cy="805.1477" fill="#F1F1F1" rx="72.3383" ry="16.8677" style="stroke:#181818;stroke-width:0.5;"/><text fill="#000000" font-family="sans-serif" font-size="14" lengthAdjust="spacing" textLength="112.2119" x="522.9124" y="809.7961">OTP Verification</text></g><!--entity UC9--><g class="entity" data-qualified-name="AYBUStore.UC9" data-source-line="19" id="ent0015"><ellipse cx="273.0945" cy="878.1489" fill="#F1F1F1" rx="92.7445" ry="20.9489" style="stroke:#181818;stroke-width:0.5;"/><text fill="#000000" font-family="sans-serif" font-size="14" lengthAdjust="spacing" textLength="159.9268" x="193.1311" y="882.7973">Custom Design Upload</text></g><!--entity UC10--><g class="entity" data-qualified-name="AYBUStore.UC10" data-source-line="20" id="ent0016"><ellipse cx="273.095" cy="452.147" fill="#F1F1F1" rx="81.885" ry="18.777" style="stroke:#181818;stroke-width:0.5;"/><text fill="#000000" font-family="sans-serif" font-size="14" lengthAdjust="spacing" textLength="135.0986" x="205.5456" y="456.7954">Chat with Assistant</text></g><!--entity UC11--><g class="entity" data-qualified-name="AYBUStore.UC11" data-source-line="21" id="ent0017"><ellipse cx="273.0869" cy="150.1534" fill="#F1F1F1" rx="78.4169" ry="18.0834" style="stroke:#181818;stroke-width:0.5;"/><text fill="#000000" font-family="sans-serif" font-size="14" lengthAdjust="spacing" textLength="126.9297" x="209.6221" y="154.8018">Manage Inventory</text></g><!--entity UC12--><g class="entity" data-qualified-name="AYBUStore.UC12" data-source-line="22" id="ent0018"><ellipse cx="273.0894" cy="377.1539" fill="#F1F1F1" rx="94.7694" ry="21.3539" style="stroke:#181818;stroke-width:0.5;"/><text fill="#000000" font-family="sans-serif" font-size="14" lengthAdjust="spacing" textLength="164.459" x="190.8599" y="381.8023">View Department Store</text></g><!--entity UC13--><g class="entity" data-qualified-name="AYBUStore.UC13" data-source-line="23" id="ent0019"><ellipse cx="273.0853" cy="953.1471" fill="#F1F1F1" rx="82.8853" ry="18.9771" style="stroke:#181818;stroke-width:0.5;"/><text fill="#000000" font-family="sans-serif" font-size="14" lengthAdjust="spacing" textLength="137.4297" x="204.3704" y="957.7955">Track Order History</text></g><!--entity UC14--><g class="entity" data-qualified-name="AYBUStore.UC14" data-source-line="24" id="ent0020"><ellipse cx="273.0878" cy="223.1536" fill="#F1F1F1" rx="86.5678" ry="19.7136" style="stroke:#181818;stroke-width:0.5;"/><text fill="#000000" font-family="sans-serif" font-size="14" lengthAdjust="spacing" textLength="145.9268" x="200.1244" y="227.802">AI-Driven Stock Alert</text></g><!--entity Student--><g class="entity" data-qualified-name="Student" data-source-line="5" id="ent0002"><ellipse cx="59.9457" cy="642" fill="#F1F1F1" rx="16" ry="16" style="stroke:#181818;stroke-width:0.5;"/><path d="M59.9457,662 C63.9457,662 66.9457,662 70.9457,658 C78.9457,658 86.9457,666 86.9457,674 L86.9457,678 C86.9457,682 82.9457,686 78.9457,686 L40.9457,686 C36.9457,686 32.9457,682 32.9457,678 L32.9457,674 C32.9457,666 40.9457,658 48.9457,658 C52.9457,662 55.9457,662 59.9457,662" fill="#F1F1F1" style="stroke:#181818;stroke-width:0.5;"/><text fill="#000000" font-family="sans-serif" font-size="14" lengthAdjust="spacing" textLength="55.1113" x="32.39" y="699.4951">Student</text></g><!--entity Staff--><g class="entity" data-qualified-name="Staff" data-source-line="6" id="ent0003"><ellipse cx="59.9424" cy="266" fill="#F1F1F1" rx="16" ry="16" style="stroke:#181818;stroke-width:0.5;"/><path d="M59.9424,286 C63.9424,286 66.9424,286 70.9424,282 C78.9424,282 86.9424,290 86.9424,298 L86.9424,302 C86.9424,306 82.9424,310 78.9424,310 L40.9424,310 C36.9424,310 32.9424,306 32.9424,302 L32.9424,298 C32.9424,290 40.9424,282 48.9424,282 C52.9424,286 55.9424,286 59.9424,286" fill="#F1F1F1" style="stroke:#181818;stroke-width:0.5;"/><text fill="#000000" font-family="sans-serif" font-size="14" lengthAdjust="spacing" textLength="107.8848" x="6" y="323.4951">University Staff</text></g><!--entity Administrator--><g class="entity" data-qualified-name="Administrator" data-source-line="7" id="ent0004"><ellipse cx="59.9413" cy="22" fill="#F1F1F1" rx="16" ry="16" style="stroke:#181818;stroke-width:0.5;"/><path d="M59.9413,42 C63.9413,42 66.9413,42 70.9413,38 C78.9413,38 86.9413,46 86.9413,54 L86.9413,58 C86.9413,62 82.9413,66 78.9413,66 L40.9413,66 C36.9413,66 32.9413,62 32.9413,58 L32.9413,54 C32.9413,46 40.9413,38 48.9413,38 C52.9413,42 55.9413,42 59.9413,42" fill="#F1F1F1" style="stroke:#181818;stroke-width:0.5;"/><text fill="#000000" font-family="sans-serif" font-size="14" lengthAdjust="spacing" textLength="95.6826" x="12.1" y="79.4951">Administrator</text></g><!--entity AI--><g class="entity" data-qualified-name="AI" data-source-line="8" id="ent0005"><ellipse cx="59.9472" cy="404" fill="#F1F1F1" rx="16" ry="16" style="stroke:#181818;stroke-width:0.5;"/><path d="M59.9472,424 C63.9472,424 66.9472,424 70.9472,420 C78.9472,420 86.9472,428 86.9472,436 L86.9472,440 C86.9472,444 82.9472,448 78.9472,448 L40.9472,448 C36.9472,448 32.9472,444 32.9472,440 L32.9472,436 C32.9472,428 40.9472,420 48.9472,420 C52.9472,424 55.9472,424 59.9472,424" fill="#F1F1F1" style="stroke:#181818;stroke-width:0.5;"/><text fill="#000000" font-family="sans-serif" font-size="14" lengthAdjust="spacing" textLength="73.8145" x="23.04" y="461.4951">AI Chatbot</text></g><!--link Student to UC1--><g class="link" data-entity-1="ent0002" data-entity-2="ent0007" data-link-type="dependency" data-source-line="27" id="lnk21"><path d="M72.51,625.16 C83.38,588.34 100.01,531.57 113.88,482.15 C131.81,418.31 107.23,386.23 152.88,338.15 C164.28,326.15 173.7893,319.9124 189.4393,314.1524" fill="none" id="Student-to-UC1" style="stroke:#181818;stroke-width:1;"/><polygon fill="#181818" points="195.07,312.08,185.2423,311.4348,190.3777,313.807,188.0055,318.9424,195.07,312.08" style="stroke:#181818;stroke-width:1;"/></g><!--link Student to UC2--><g class="link" data-entity-1="ent0002" data-entity-2="ent0008" data-link-type="dependency" data-source-line="28" id="lnk22"><path d="M86.28,625.09 C102.77,602.54 126.14,575.33 152.88,558.15 C171.03,546.49 187.3844,540.1151 207.6544,534.8251" fill="none" id="Student-to-UC2" style="stroke:#181818;stroke-width:1;"/><polygon fill="#181818" points="213.46,533.31,203.7416,531.7123,208.622,534.5726,205.7617,539.453,213.46,533.31" style="stroke:#181818;stroke-width:1;"/></g><!--link Student to UC3--><g class="link" data-entity-1="ent0002" data-entity-2="ent0009" data-link-type="dependency" data-source-line="29" id="lnk23"><path d="M87.82,654.53 C106.11,648.04 130.89,639.39 152.88,632.15 C174.7,624.97 193.1549,619.1532 214.0049,612.7432" fill="none" id="Student-to-UC3" style="stroke:#181818;stroke-width:1;"/><polygon fill="#181818" points="219.74,610.98,209.9619,609.8013,214.9608,612.4493,212.3128,617.4481,219.74,610.98" style="stroke:#181818;stroke-width:1;"/></g><!--link Student to UC4--><g class="link" data-entity-1="ent0002" data-entity-2="ent0010" data-link-type="dependency" data-source-line="30" id="lnk24"><path d="M87.68,664.15 C119.09,664.15 166.12,664.15 207.27,664.15" fill="none" id="Student-to-UC4" style="stroke:#181818;stroke-width:1;"/><polygon fill="#181818" points="213.27,664.15,204.27,660.15,208.27,664.15,204.27,668.15,213.27,664.15" style="stroke:#181818;stroke-width:1;"/></g><!--link Student to UC5--><g class="link" data-entity-1="ent0002" data-entity-2="ent0011" data-link-type="dependency" data-source-line="31" id="lnk25"><path d="M87.82,673.77 C106.11,680.26 130.89,688.91 152.88,696.15 C175.01,703.43 193.8448,709.3572 214.8948,715.8272" fill="none" id="Student-to-UC5" style="stroke:#181818;stroke-width:1;"/><polygon fill="#181818" points="220.63,717.59,213.2024,711.1223,215.8507,716.121,210.852,718.7693,220.63,717.59" style="stroke:#181818;stroke-width:1;"/></g><!--link Student to UC6--><g class="link" data-entity-1="ent0002" data-entity-2="ent0012" data-link-type="dependency" data-source-line="32" id="lnk26"><path d="M86.28,703.21 C102.77,725.76 126.14,752.97 152.88,770.15 C170.58,781.51 186.2916,787.7577 206.1416,793.0377" fill="none" id="Student-to-UC6" style="stroke:#181818;stroke-width:1;"/><polygon fill="#181818" points="211.94,794.58,204.2707,788.4009,207.108,793.2947,202.2142,796.1321,211.94,794.58" style="stroke:#181818;stroke-width:1;"/></g><!--link Student to UC7--><g class="link" data-entity-1="ent0002" data-entity-2="ent0013" data-link-type="dependency" data-source-line="33" id="lnk27"><path d="M66.09,703.03 C77.36,781.51 106.94,954.4 152.88,989.15 C229.6,1047.17 286.7,1038.43 369.3,989.15 C492.42,915.7 561.2746,428.001 574.8046,322.801" fill="none" id="Student-to-UC7" style="stroke:#181818;stroke-width:1;"/><polygon fill="#181818" points="575.57,316.85,570.4546,325.2662,574.9322,321.8092,578.3893,326.2867,575.57,316.85" style="stroke:#181818;stroke-width:1;"/></g><!--link Student to UC9--><g class="link" data-entity-1="ent0002" data-entity-2="ent0015" data-link-type="dependency" data-source-line="34" id="lnk28"><path d="M71.62,703.01 C84.51,742.9 110,804.1 152.88,840.15 C166.27,851.4 177.3306,857.4245 194.0206,863.0145" fill="none" id="Student-to-UC9" style="stroke:#181818;stroke-width:1;"/><polygon fill="#181818" points="199.71,864.92,192.4463,858.2688,194.9689,863.332,189.9056,865.8546,199.71,864.92" style="stroke:#181818;stroke-width:1;"/></g><!--link Student to UC10--><g class="link" data-entity-1="ent0002" data-entity-2="ent0016" data-link-type="dependency" data-source-line="35" id="lnk29"><path d="M85.42,625.18 C103.48,595.31 127.79,552.65 144.88,513.15 C149.52,502.44 144.57,496.33 152.88,488.15 C166.06,475.19 177.9848,468.6 195.6848,463.27" fill="none" id="Student-to-UC10" style="stroke:#181818;stroke-width:1;"/><polygon fill="#181818" points="201.43,461.54,191.6589,460.305,196.6424,462.9817,193.9656,467.9652,201.43,461.54" style="stroke:#181818;stroke-width:1;"/></g><!--link Student to UC12--><g class="link" data-entity-1="ent0002" data-entity-2="ent0018" data-link-type="dependency" data-source-line="36" id="lnk30"><path d="M75.32,625.22 C101.05,555.53 152.39,416.63 152.88,416.15 C165.2,404.3 175.5237,398.0517 191.7437,392.3117" fill="none" id="Student-to-UC12" style="stroke:#181818;stroke-width:1;"/><polygon fill="#181818" points="197.4,390.31,187.5812,389.5416,192.6864,391.9781,190.25,397.0833,197.4,390.31" style="stroke:#181818;stroke-width:1;"/></g><!--link Student to UC13--><g class="link" data-entity-1="ent0002" data-entity-2="ent0019" data-link-type="dependency" data-source-line="37" id="lnk31"><path d="M64.51,703.23 C71.62,758.36 92.52,858.66 152.88,916.15 C166.46,929.08 178.7328,935.7336 196.6328,941.2136" fill="none" id="Student-to-UC13" style="stroke:#181818;stroke-width:1;"/><polygon fill="#181818" points="202.37,942.97,194.9352,936.5106,197.589,941.5063,192.5933,944.1602,202.37,942.97" style="stroke:#181818;stroke-width:1;"/></g><!--link Staff to UC1--><g class="link" data-entity-1="ent0003" data-entity-2="ent0007" data-link-type="dependency" data-source-line="39" id="lnk32"><path d="M114.22,290.93 C133.89,291.95 150.8082,292.8265 172.9782,293.9865" fill="none" id="Staff-to-UC1" style="stroke:#181818;stroke-width:1;"/><polygon fill="#181818" points="178.97,294.3,170.1913,289.8352,173.9768,294.0387,169.7733,297.8243,178.97,294.3" style="stroke:#181818;stroke-width:1;"/></g><!--link Staff to UC7--><g class="link" data-entity-1="ent0003" data-entity-2="ent0013" data-link-type="dependency" data-source-line="40" id="lnk33"><path d="M69.13,249.23 C80.22,207.51 104.45,143.33 152.88,114.15 C235.27,64.51 279.28,80.27 369.3,114.15 C458.15,147.59 530.2287,233.146 560.4087,273.016" fill="none" id="Staff-to-UC7" style="stroke:#181818;stroke-width:1;"/><polygon fill="#181818" points="564.03,277.8,561.7874,268.2099,561.0123,273.8134,555.4088,273.0382,564.03,277.8" style="stroke:#181818;stroke-width:1;"/></g><!--link Staff to UC12--><g class="link" data-entity-1="ent0003" data-entity-2="ent0018" data-link-type="dependency" data-source-line="41" id="lnk34"><path d="M114.09,319.17 C126.6,325.88 140.04,332.61 152.88,338.15 C172.08,346.43 187.924,352.1559 207.384,358.3659" fill="none" id="Staff-to-UC12" style="stroke:#181818;stroke-width:1;"/><polygon fill="#181818" points="213.1,360.19,205.742,353.6432,208.3367,358.6699,203.3099,361.2646,213.1,360.19" style="stroke:#181818;stroke-width:1;"/></g><!--link Administrator to UC7--><g class="link" data-entity-1="ent0004" data-entity-2="ent0013" data-link-type="dependency" data-source-line="43" id="lnk35"><path d="M108.25,39.05 C191.42,32.87 364.48,32.83 464.3,124.15 C514.55,170.13 550.1493,237.4086 566.5893,272.0786" fill="none" id="Administrator-to-UC7" style="stroke:#181818;stroke-width:1;"/><polygon fill="#181818" points="569.16,277.5,568.9181,267.6541,567.0177,272.9822,561.6896,271.0818,569.16,277.5" style="stroke:#181818;stroke-width:1;"/></g><!--link Administrator to UC11--><g class="link" data-entity-1="ent0004" data-entity-2="ent0017" data-link-type="dependency" data-source-line="44" id="lnk36"><path d="M108.07,67.81 C147.81,87.76 198.3277,113.1182 233.5277,130.7882" fill="none" id="Administrator-to-UC11" style="stroke:#181818;stroke-width:1;"/><polygon fill="#181818" points="238.89,133.48,232.6411,125.8674,234.4214,131.2368,229.052,133.0171,238.89,133.48" style="stroke:#181818;stroke-width:1;"/></g><!--link Administrator to UC14--><g class="link" data-entity-1="ent0004" data-entity-2="ent0020" data-link-type="dependency" data-source-line="45" id="lnk37"><path d="M76.97,83.02 C92.07,115.07 117.66,159.45 152.88,186.15 C167.82,197.47 180.5443,203.6089 198.4243,209.0989" fill="none" id="Administrator-to-UC14" style="stroke:#181818;stroke-width:1;"/><polygon fill="#181818" points="204.16,210.86,196.7305,204.3945,199.3802,209.3924,194.3823,212.0421,204.16,210.86" style="stroke:#181818;stroke-width:1;"/></g><!--link AI to UC10--><g class="link" data-entity-1="ent0005" data-entity-2="ent0016" data-link-type="dependency" data-source-line="47" id="lnk38"><path d="M97.24,430.62 C125.42,434.09 159.4349,438.2772 194.0549,442.5372" fill="none" id="AI-to-UC10" style="stroke:#181818;stroke-width:1;"/><polygon fill="#181818" points="200.01,443.27,191.5659,438.2008,195.0474,442.6594,190.5889,446.1409,200.01,443.27" style="stroke:#181818;stroke-width:1;"/></g><!--link AI to UC14--><g class="link" data-entity-1="ent0005" data-entity-2="ent0020" data-link-type="dependency" data-source-line="48" id="lnk39"><path d="M87.66,387.2 C96.42,373.8 105.95,358.54 113.88,344.15 C133.76,308.11 121.9,287.25 152.88,260.15 C166.59,248.17 178.4065,241.8603 195.7965,236.3903" fill="none" id="AI-to-UC14" style="stroke:#181818;stroke-width:1;"/><polygon fill="#181818" points="201.52,234.59,191.7345,233.4748,196.7504,236.0903,194.1349,241.1062,201.52,234.59" style="stroke:#181818;stroke-width:1;"/></g><!--link UC6 to UC8--><g class="link" data-entity-1="ent0012" data-entity-2="ent0014" data-link-type="dependency" data-source-line="50" id="lnk40"><path d="M348.83,805.15 C396.81,805.15 452.79,805.15 500.19,805.15" fill="none" id="UC6-to-UC8" style="stroke:#181818;stroke-width:1;stroke-dasharray:7,7;"/><polygon fill="#181818" points="506.19,805.15,497.19,801.15,501.19,805.15,497.19,809.15,506.19,805.15" style="stroke:#181818;stroke-width:1;"/><text fill="#000000" font-family="sans-serif" font-size="13" lengthAdjust="spacing" textLength="63.0068" x="400.3" y="801.2169">&#171;include&#187;</text></g><!--link UC5 to UC7--><g class="link" data-entity-1="ent0011" data-entity-2="ent0013" data-link-type="dependency" data-source-line="51" id="lnk41"><path d="M330.73,718.74 C344.46,713.3 358.33,705.96 369.3,696.15 C493.99,584.62 554.5263,386.528 571.5363,322.638" fill="none" id="UC5-to-UC7" style="stroke:#181818;stroke-width:1;stroke-dasharray:7,7;"/><polygon fill="#181818" points="573.08,316.84,566.8992,324.5079,571.7936,321.6717,574.6299,326.5661,573.08,316.84" style="stroke:#181818;stroke-width:1;"/><text fill="#000000" font-family="sans-serif" font-size="13" lengthAdjust="spacing" textLength="63.0068" x="400.3" y="579.2169">&#171;include&#187;</text></g><?plantuml-src RPD1R-8m48Nl_XKZxdGBXTAkAgGK3etKLT5IAkrnrZ69HM8ZUrA4LllVTm8cEDcUakVtPVmydfHgIq0MdCuBWamx9KbR8_nEcpqwh62FSeUvMjEnLD3OQF9IHG1Aikviuq5vMoaXJckmfZfJXe8QR8p-LCvhEhA3s-q0q9_V0f5abJRQaqDMbw-I51O5qczB9pv9XMXJiFlhURDcJWtWZm2elPBeUVtPsGC_LyvcjIHO865fyrE5pM8Kask5JXONqWTa72CVMXtQKaj5gCiBTnTpIPOrlLoWes1FOdjHABcpDS4tME6nuiu4QXfJFrNEBL3S3IbjtJBtCVDgSssuJ59JmMMqH5A1cyNSs_iAFfJJsuRWQmtCGoTLxSbMV2olSmERVMan2znZDpqI73GLa7ZF2R6DDhgDkHzeU5mWDP-SpBhZ1Hhzrz6buW6YfWyGhl1CTdh_xdZ-uCrbt94NtZQgsErzEbmwdY_JrE8labArjp2QYBz2X6c4uN1-ce6k7lVqNKzFUdhQq_SzFUlfn_x-j_s5VW8-dpZz7L7YgvfrlR4GdR-dfRvQvRluSdd2HT9hlkix6tn2kBbfr0DyXwSdRMJ9QUTpTgR1cNMTVm00?></g></svg>