<svg xmlns="http://www.w3.org/2000/svg" xmlns:xlink="http://www.w3.org/1999/xlink" contentStyleType="text/css" data-diagram-type="CLASS" height="766px" preserveAspectRatio="none" style="width:931px;height:766px;background:#FFFFFF;" version="1.1" viewBox="0 0 931 766" width="931px" zoomAndPan="magnify"><?plantuml 1.2026.4beta2?><defs/><g><!--class User--><g class="entity" data-qualified-name="User" data-source-line="1" id="ent0002"><rect fill="#F1F1F1" height="113.1875" rx="2.5" ry="2.5" style="stroke:#181818;stroke-width:0.5;" width="151.6377" x="208.29" y="148.6"/><ellipse cx="263.9038" cy="164.6" fill="#ADD1B2" rx="11" ry="11" style="stroke:#181818;stroke-width:1;"/><path d="M266.8725,170.2406 Q266.2944,170.5375 265.6538,170.6781 Q265.0131,170.8344 264.31,170.8344 Q261.81,170.8344 260.4819,169.1938 Q259.1694,167.5375 259.1694,164.4125 Q259.1694,161.2875 260.4819,159.6313 Q261.81,157.975 264.31,157.975 Q265.0131,157.975 265.6538,158.1313 Q266.31,158.2875 266.8725,158.5844 L266.8725,161.3031 Q266.2475,160.725 265.6538,160.4594 Q265.06,160.1781 264.435,160.1781 Q263.0913,160.1781 262.4038,161.2563 Q261.7163,162.3188 261.7163,164.4125 Q261.7163,166.5063 262.4038,167.5844 Q263.0913,168.6469 264.435,168.6469 Q265.06,168.6469 265.6538,168.3813 Q266.2475,168.1 266.8725,167.5219 L266.8725,170.2406 Z " fill="#000000"/><text fill="#000000" font-family="sans-serif" font-size="14" lengthAdjust="spacing" textLength="31.9102" x="284.4038" y="169.4467">User</text><line style="stroke:#181818;stroke-width:0.5;" x1="209.29" x2="358.9277" y1="180.6" y2="180.6"/><g data-visibility-modifier="PUBLIC_FIELD"><ellipse cx="219.29" cy="194.2484" fill="none" rx="3" ry="3" style="stroke:#038048;stroke-width:1;"/></g><text fill="#000000" font-family="sans-serif" font-size="14" lengthAdjust="spacing" textLength="60.5186" x="228.29" y="197.5951">id : Long</text><g data-visibility-modifier="PUBLIC_FIELD"><ellipse cx="219.29" cy="210.5453" fill="none" rx="3" ry="3" style="stroke:#038048;stroke-width:1;"/></g><text fill="#000000" font-family="sans-serif" font-size="14" lengthAdjust="spacing" textLength="125.6377" x="228.29" y="213.892">username : String</text><g data-visibility-modifier="PUBLIC_FIELD"><ellipse cx="219.29" cy="226.8422" fill="none" rx="3" ry="3" style="stroke:#038048;stroke-width:1;"/></g><text fill="#000000" font-family="sans-serif" font-size="14" lengthAdjust="spacing" textLength="122.1104" x="228.29" y="230.1889">password : String</text><g data-visibility-modifier="PUBLIC_FIELD"><ellipse cx="219.29" cy="243.1391" fill="none" rx="3" ry="3" style="stroke:#038048;stroke-width:1;"/></g><text fill="#000000" font-family="sans-serif" font-size="14" lengthAdjust="spacing" textLength="71.2373" x="228.29" y="246.4857">role : Role</text><line style="stroke:#181818;stroke-width:0.5;" x1="209.29" x2="358.9277" y1="253.7875" y2="253.7875"/></g><!--class Student--><g class="entity" data-qualified-name="Student" data-source-line="8" id="ent0003"><rect fill="#F1F1F1" height="80.5938" rx="2.5" ry="2.5" style="stroke:#181818;stroke-width:0.5;" width="164.2227" x="7" y="670.57"/><ellipse cx="57.3057" cy="686.57" fill="#ADD1B2" rx="11" ry="11" style="stroke:#181818;stroke-width:1;"/><path d="M60.2744,692.2106 Q59.6963,692.5075 59.0557,692.6481 Q58.415,692.8044 57.7119,692.8044 Q55.2119,692.8044 53.8838,691.1637 Q52.5713,689.5075 52.5713,686.3825 Q52.5713,683.2575 53.8838,681.6012 Q55.2119,679.945 57.7119,679.945 Q58.415,679.945 59.0557,680.1012 Q59.7119,680.2575 60.2744,680.5544 L60.2744,683.2731 Q59.6494,682.695 59.0557,682.4294 Q58.4619,682.1481 57.8369,682.1481 Q56.4932,682.1481 55.8057,683.2262 Q55.1182,684.2887 55.1182,686.3825 Q55.1182,688.4762 55.8057,689.5544 Q56.4932,690.6169 57.8369,690.6169 Q58.4619,690.6169 59.0557,690.3512 Q59.6494,690.07 60.2744,689.4919 L60.2744,692.2106 Z " fill="#000000"/><text fill="#000000" font-family="sans-serif" font-size="14" lengthAdjust="spacing" textLength="55.1113" x="77.8057" y="691.4167">Student</text><line style="stroke:#181818;stroke-width:0.5;" x1="8" x2="170.2227" y1="702.57" y2="702.57"/><g data-visibility-modifier="PUBLIC_FIELD"><ellipse cx="18" cy="716.2184" fill="none" rx="3" ry="3" style="stroke:#038048;stroke-width:1;"/></g><text fill="#000000" font-family="sans-serif" font-size="14" lengthAdjust="spacing" textLength="121.9326" x="27" y="719.5651">studentId : String</text><g data-visibility-modifier="PUBLIC_FIELD"><ellipse cx="18" cy="732.5153" fill="none" rx="3" ry="3" style="stroke:#038048;stroke-width:1;"/></g><text fill="#000000" font-family="sans-serif" font-size="14" lengthAdjust="spacing" textLength="138.2227" x="27" y="735.862">department : String</text><line style="stroke:#181818;stroke-width:0.5;" x1="8" x2="170.2227" y1="743.1637" y2="743.1637"/></g><!--class Instructor--><g class="entity" data-qualified-name="Instructor" data-source-line="13" id="ent0004"><rect fill="#F1F1F1" height="80.5938" rx="2.5" ry="2.5" style="stroke:#181818;stroke-width:0.5;" width="162.0967" x="113.06" y="330.93"/><ellipse cx="156.0387" cy="346.93" fill="#ADD1B2" rx="11" ry="11" style="stroke:#181818;stroke-width:1;"/><path d="M159.0074,352.5706 Q158.4293,352.8675 157.7887,353.0081 Q157.148,353.1644 156.4449,353.1644 Q153.9449,353.1644 152.6168,351.5237 Q151.3043,349.8675 151.3043,346.7425 Q151.3043,343.6175 152.6168,341.9612 Q153.9449,340.305 156.4449,340.305 Q157.148,340.305 157.7887,340.4612 Q158.4449,340.6175 159.0074,340.9144 L159.0074,343.6331 Q158.3824,343.055 157.7887,342.7894 Q157.1949,342.5081 156.5699,342.5081 Q155.2262,342.5081 154.5387,343.5862 Q153.8512,344.6487 153.8512,346.7425 Q153.8512,348.8362 154.5387,349.9144 Q155.2262,350.9769 156.5699,350.9769 Q157.1949,350.9769 157.7887,350.7112 Q158.3824,350.43 159.0074,349.8519 L159.0074,352.5706 Z " fill="#000000"/><text fill="#000000" font-family="sans-serif" font-size="14" lengthAdjust="spacing" textLength="67.9219" x="176.2561" y="351.7767">Instructor</text><line style="stroke:#181818;stroke-width:0.5;" x1="114.06" x2="274.1567" y1="362.93" y2="362.93"/><g data-visibility-modifier="PUBLIC_FIELD"><ellipse cx="124.06" cy="376.5784" fill="none" rx="3" ry="3" style="stroke:#038048;stroke-width:1;"/></g><text fill="#000000" font-family="sans-serif" font-size="14" lengthAdjust="spacing" textLength="136.0967" x="133.06" y="379.9251">instructorId : String</text><g data-visibility-modifier="PUBLIC_FIELD"><ellipse cx="124.06" cy="392.8753" fill="none" rx="3" ry="3" style="stroke:#038048;stroke-width:1;"/></g><text fill="#000000" font-family="sans-serif" font-size="14" lengthAdjust="spacing" textLength="131.5303" x="133.06" y="396.222">availability : String</text><line style="stroke:#181818;stroke-width:0.5;" x1="114.06" x2="274.1567" y1="403.5237" y2="403.5237"/></g><!--class Administrator--><g class="entity" data-qualified-name="Administrator" data-source-line="18" id="ent0005"><rect fill="#F1F1F1" height="48" rx="2.5" ry="2.5" style="stroke:#181818;stroke-width:0.5;" width="127.6826" x="310.27" y="347.23"/><ellipse cx="325.27" cy="363.23" fill="#ADD1B2" rx="11" ry="11" style="stroke:#181818;stroke-width:1;"/><path d="M328.2388,368.8706 Q327.6606,369.1675 327.02,369.3081 Q326.3794,369.4644 325.6763,369.4644 Q323.1763,369.4644 321.8481,367.8237 Q320.5356,366.1675 320.5356,363.0425 Q320.5356,359.9175 321.8481,358.2612 Q323.1763,356.605 325.6763,356.605 Q326.3794,356.605 327.02,356.7612 Q327.6763,356.9175 328.2388,357.2144 L328.2388,359.9331 Q327.6138,359.355 327.02,359.0894 Q326.4263,358.8081 325.8013,358.8081 Q324.4575,358.8081 323.77,359.8862 Q323.0825,360.9487 323.0825,363.0425 Q323.0825,365.1362 323.77,366.2144 Q324.4575,367.2769 325.8013,367.2769 Q326.4263,367.2769 327.02,367.0112 Q327.6138,366.73 328.2388,366.1519 L328.2388,368.8706 Z " fill="#000000"/><text fill="#000000" font-family="sans-serif" font-size="14" lengthAdjust="spacing" textLength="95.6826" x="339.27" y="368.0767">Administrator</text><line style="stroke:#181818;stroke-width:0.5;" x1="311.27" x2="436.9526" y1="379.23" y2="379.23"/><line style="stroke:#181818;stroke-width:0.5;" x1="311.27" x2="436.9526" y1="387.23" y2="387.23"/></g><!--class DepartmentCoordinator--><g class="entity" data-qualified-name="DepartmentCoordinator" data-source-line="20" id="ent0006"><rect fill="#F1F1F1" height="48" rx="2.5" ry="2.5" style="stroke:#181818;stroke-width:0.5;" width="199.4189" x="473.4" y="347.23"/><ellipse cx="488.4" cy="363.23" fill="#ADD1B2" rx="11" ry="11" style="stroke:#181818;stroke-width:1;"/><path d="M491.3688,368.8706 Q490.7906,369.1675 490.15,369.3081 Q489.5094,369.4644 488.8063,369.4644 Q486.3063,369.4644 484.9781,367.8237 Q483.6656,366.1675 483.6656,363.0425 Q483.6656,359.9175 484.9781,358.2612 Q486.3063,356.605 488.8063,356.605 Q489.5094,356.605 490.15,356.7612 Q490.8063,356.9175 491.3688,357.2144 L491.3688,359.9331 Q490.7438,359.355 490.15,359.0894 Q489.5563,358.8081 488.9313,358.8081 Q487.5875,358.8081 486.9,359.8862 Q486.2125,360.9487 486.2125,363.0425 Q486.2125,365.1362 486.9,366.2144 Q487.5875,367.2769 488.9313,367.2769 Q489.5563,367.2769 490.15,367.0112 Q490.7438,366.73 491.3688,366.1519 L491.3688,368.8706 Z " fill="#000000"/><text fill="#000000" font-family="sans-serif" font-size="14" lengthAdjust="spacing" textLength="167.4189" x="502.4" y="368.0767">DepartmentCoordinator</text><line style="stroke:#181818;stroke-width:0.5;" x1="474.4" x2="671.8189" y1="379.23" y2="379.23"/><line style="stroke:#181818;stroke-width:0.5;" x1="474.4" x2="671.8189" y1="387.23" y2="387.23"/></g><!--class Course--><g class="entity" data-qualified-name="Course" data-source-line="22" id="ent0007"><rect fill="#F1F1F1" height="96.8906" rx="2.5" ry="2.5" style="stroke:#181818;stroke-width:0.5;" width="169.5" x="113.36" y="496.68"/><ellipse cx="169.4215" cy="512.68" fill="#ADD1B2" rx="11" ry="11" style="stroke:#181818;stroke-width:1;"/><path d="M172.3903,518.3206 Q171.8121,518.6175 171.1715,518.7581 Q170.5309,518.9144 169.8278,518.9144 Q167.3278,518.9144 165.9996,517.2738 Q164.6871,515.6175 164.6871,512.4925 Q164.6871,509.3675 165.9996,507.7112 Q167.3278,506.055 169.8278,506.055 Q170.5309,506.055 171.1715,506.2112 Q171.8278,506.3675 172.3903,506.6644 L172.3903,509.3831 Q171.7653,508.805 171.1715,508.5394 Q170.5778,508.2581 169.9528,508.2581 Q168.609,508.2581 167.9215,509.3362 Q167.234,510.3987 167.234,512.4925 Q167.234,514.5863 167.9215,515.6644 Q168.609,516.7269 169.9528,516.7269 Q170.5778,516.7269 171.1715,516.4613 Q171.7653,516.18 172.3903,515.6019 L172.3903,518.3206 Z " fill="#000000"/><text fill="#000000" font-family="sans-serif" font-size="14" lengthAdjust="spacing" textLength="48.877" x="189.9215" y="517.5267">Course</text><line style="stroke:#181818;stroke-width:0.5;" x1="114.36" x2="281.86" y1="528.68" y2="528.68"/><g data-visibility-modifier="PUBLIC_FIELD"><ellipse cx="124.36" cy="542.3284" fill="none" rx="3" ry="3" style="stroke:#038048;stroke-width:1;"/></g><text fill="#000000" font-family="sans-serif" font-size="14" lengthAdjust="spacing" textLength="115.2129" x="133.36" y="545.6751">courseId : String</text><g data-visibility-modifier="PUBLIC_FIELD"><ellipse cx="124.36" cy="558.6253" fill="none" rx="3" ry="3" style="stroke:#038048;stroke-width:1;"/></g><text fill="#000000" font-family="sans-serif" font-size="14" lengthAdjust="spacing" textLength="143.5" x="133.36" y="561.972">courseName : String</text><g data-visibility-modifier="PUBLIC_FIELD"><ellipse cx="124.36" cy="574.9222" fill="none" rx="3" ry="3" style="stroke:#038048;stroke-width:1;"/></g><text fill="#000000" font-family="sans-serif" font-size="14" lengthAdjust="spacing" textLength="132.1455" x="133.36" y="578.2689">difficultyScore : int</text><line style="stroke:#181818;stroke-width:0.5;" x1="114.36" x2="281.86" y1="585.5706" y2="585.5706"/></g><!--class Classroom--><g class="entity" data-qualified-name="Classroom" data-source-line="28" id="ent0008"><rect fill="#F1F1F1" height="96.8906" rx="2.5" ry="2.5" style="stroke:#181818;stroke-width:0.5;" width="136.9473" x="709.64" y="496.68"/><ellipse cx="738.8559" cy="512.68" fill="#ADD1B2" rx="11" ry="11" style="stroke:#181818;stroke-width:1;"/><path d="M741.8246,518.3206 Q741.2465,518.6175 740.6059,518.7581 Q739.9652,518.9144 739.2621,518.9144 Q736.7621,518.9144 735.434,517.2738 Q734.1215,515.6175 734.1215,512.4925 Q734.1215,509.3675 735.434,507.7112 Q736.7621,506.055 739.2621,506.055 Q739.9652,506.055 740.6059,506.2112 Q741.2621,506.3675 741.8246,506.6644 L741.8246,509.3831 Q741.1996,508.805 740.6059,508.5394 Q740.0121,508.2581 739.3871,508.2581 Q738.0434,508.2581 737.3559,509.3362 Q736.6684,510.3987 736.6684,512.4925 Q736.6684,514.5863 737.3559,515.6644 Q738.0434,516.7269 739.3871,516.7269 Q740.0121,516.7269 740.6059,516.4613 Q741.1996,516.18 741.8246,515.6019 L741.8246,518.3206 Z " fill="#000000"/><text fill="#000000" font-family="sans-serif" font-size="14" lengthAdjust="spacing" textLength="73.3564" x="756.015" y="517.5267">Classroom</text><line style="stroke:#181818;stroke-width:0.5;" x1="710.64" x2="845.5873" y1="528.68" y2="528.68"/><g data-visibility-modifier="PUBLIC_FIELD"><ellipse cx="720.64" cy="542.3284" fill="none" rx="3" ry="3" style="stroke:#038048;stroke-width:1;"/></g><text fill="#000000" font-family="sans-serif" font-size="14" lengthAdjust="spacing" textLength="104.9385" x="729.64" y="545.6751">roomId : String</text><g data-visibility-modifier="PUBLIC_FIELD"><ellipse cx="720.64" cy="558.6253" fill="none" rx="3" ry="3" style="stroke:#038048;stroke-width:1;"/></g><text fill="#000000" font-family="sans-serif" font-size="14" lengthAdjust="spacing" textLength="90.9727" x="729.64" y="561.972">capacity : int</text><g data-visibility-modifier="PUBLIC_FIELD"><ellipse cx="720.64" cy="574.9222" fill="none" rx="3" ry="3" style="stroke:#038048;stroke-width:1;"/></g><text fill="#000000" font-family="sans-serif" font-size="14" lengthAdjust="spacing" textLength="110.9473" x="729.64" y="578.2689">location : String</text><line style="stroke:#181818;stroke-width:0.5;" x1="710.64" x2="845.5873" y1="585.5706" y2="585.5706"/></g><!--class Exam--><g class="entity" data-qualified-name="Exam" data-source-line="34" id="ent0009"><rect fill="#F1F1F1" height="96.8906" rx="2.5" ry="2.5" style="stroke:#181818;stroke-width:0.5;" width="139.8594" x="708.18" y="322.78"/><ellipse cx="754.1859" cy="338.78" fill="#ADD1B2" rx="11" ry="11" style="stroke:#181818;stroke-width:1;"/><path d="M757.1546,344.4206 Q756.5765,344.7175 755.9359,344.8581 Q755.2952,345.0144 754.5921,345.0144 Q752.0921,345.0144 750.764,343.3738 Q749.4515,341.7175 749.4515,338.5925 Q749.4515,335.4675 750.764,333.8113 Q752.0921,332.155 754.5921,332.155 Q755.2952,332.155 755.9359,332.3113 Q756.5921,332.4675 757.1546,332.7644 L757.1546,335.4831 Q756.5296,334.905 755.9359,334.6394 Q755.3421,334.3581 754.7171,334.3581 Q753.3734,334.3581 752.6859,335.4363 Q751.9984,336.4988 751.9984,338.5925 Q751.9984,340.6863 752.6859,341.7644 Q753.3734,342.8269 754.7171,342.8269 Q755.3421,342.8269 755.9359,342.5613 Q756.5296,342.28 757.1546,341.7019 L757.1546,344.4206 Z " fill="#000000"/><text fill="#000000" font-family="sans-serif" font-size="14" lengthAdjust="spacing" textLength="39.3477" x="774.6859" y="343.6267">Exam</text><line style="stroke:#181818;stroke-width:0.5;" x1="709.18" x2="847.0394" y1="354.78" y2="354.78"/><g data-visibility-modifier="PUBLIC_FIELD"><ellipse cx="719.18" cy="368.4284" fill="none" rx="3" ry="3" style="stroke:#038048;stroke-width:1;"/></g><text fill="#000000" font-family="sans-serif" font-size="14" lengthAdjust="spacing" textLength="107.5293" x="728.18" y="371.7751">examId : String</text><g data-visibility-modifier="PUBLIC_FIELD"><ellipse cx="719.18" cy="384.7253" fill="none" rx="3" ry="3" style="stroke:#038048;stroke-width:1;"/></g><text fill="#000000" font-family="sans-serif" font-size="14" lengthAdjust="spacing" textLength="78.6475" x="728.18" y="388.072">date : Date</text><g data-visibility-modifier="PUBLIC_FIELD"><ellipse cx="719.18" cy="401.0222" fill="none" rx="3" ry="3" style="stroke:#038048;stroke-width:1;"/></g><text fill="#000000" font-family="sans-serif" font-size="14" lengthAdjust="spacing" textLength="113.8594" x="728.18" y="404.3689">timeSlot : String</text><line style="stroke:#181818;stroke-width:0.5;" x1="709.18" x2="847.0394" y1="411.6706" y2="411.6706"/></g><!--class Schedule--><g class="entity" data-qualified-name="Schedule" data-source-line="40" id="ent0010"><rect fill="#F1F1F1" height="80.5938" rx="2.5" ry="2.5" style="stroke:#181818;stroke-width:0.5;" width="157.1543" x="549.53" y="164.89"/><ellipse cx="591.8996" cy="180.89" fill="#ADD1B2" rx="11" ry="11" style="stroke:#181818;stroke-width:1;"/><path d="M594.8683,186.5306 Q594.2902,186.8275 593.6496,186.9681 Q593.009,187.1244 592.3058,187.1244 Q589.8058,187.1244 588.4777,185.4838 Q587.1652,183.8275 587.1652,180.7025 Q587.1652,177.5775 588.4777,175.9213 Q589.8058,174.265 592.3058,174.265 Q593.009,174.265 593.6496,174.4213 Q594.3058,174.5775 594.8683,174.8744 L594.8683,177.5931 Q594.2433,177.015 593.6496,176.7494 Q593.0558,176.4681 592.4308,176.4681 Q591.0871,176.4681 590.3996,177.5463 Q589.7121,178.6088 589.7121,180.7025 Q589.7121,182.7963 590.3996,183.8744 Q591.0871,184.9369 592.4308,184.9369 Q593.0558,184.9369 593.6496,184.6713 Q594.2433,184.39 594.8683,183.8119 L594.8683,186.5306 Z " fill="#000000"/><text fill="#000000" font-family="sans-serif" font-size="14" lengthAdjust="spacing" textLength="64.333" x="611.9817" y="185.7367">Schedule</text><line style="stroke:#181818;stroke-width:0.5;" x1="550.53" x2="705.6843" y1="196.89" y2="196.89"/><g data-visibility-modifier="PUBLIC_FIELD"><ellipse cx="560.53" cy="210.5384" fill="none" rx="3" ry="3" style="stroke:#038048;stroke-width:1;"/></g><text fill="#000000" font-family="sans-serif" font-size="14" lengthAdjust="spacing" textLength="131.1543" x="569.53" y="213.8851">scheduleId : String</text><g data-visibility-modifier="PUBLIC_FIELD"><ellipse cx="560.53" cy="226.8353" fill="none" rx="3" ry="3" style="stroke:#038048;stroke-width:1;"/></g><text fill="#000000" font-family="sans-serif" font-size="14" lengthAdjust="spacing" textLength="98.417" x="569.53" y="230.182">status : String</text><line style="stroke:#181818;stroke-width:0.5;" x1="550.53" x2="705.6843" y1="237.4838" y2="237.4838"/></g><!--class Constraint--><g class="entity" data-qualified-name="Constraint" data-source-line="45" id="ent0011"><rect fill="#F1F1F1" height="80.5938" rx="2.5" ry="2.5" style="stroke:#181818;stroke-width:0.5;" width="164.9199" x="545.65" y="7"/><ellipse cx="587.8012" cy="23" fill="#ADD1B2" rx="11" ry="11" style="stroke:#181818;stroke-width:1;"/><path d="M590.7699,28.6406 Q590.1918,28.9375 589.5512,29.0781 Q588.9105,29.2344 588.2074,29.2344 Q585.7074,29.2344 584.3793,27.5938 Q583.0668,25.9375 583.0668,22.8125 Q583.0668,19.6875 584.3793,18.0313 Q585.7074,16.375 588.2074,16.375 Q588.9105,16.375 589.5512,16.5313 Q590.2074,16.6875 590.7699,16.9844 L590.7699,19.7031 Q590.1449,19.125 589.5512,18.8594 Q588.9574,18.5781 588.3324,18.5781 Q586.9887,18.5781 586.3012,19.6563 Q585.6137,20.7188 585.6137,22.8125 Q585.6137,24.9063 586.3012,25.9844 Q586.9887,27.0469 588.3324,27.0469 Q588.9574,27.0469 589.5512,26.7813 Q590.1449,26.5 590.7699,25.9219 L590.7699,28.6406 Z " fill="#000000"/><text fill="#000000" font-family="sans-serif" font-size="14" lengthAdjust="spacing" textLength="72.584" x="607.8348" y="27.8467">Constraint</text><line style="stroke:#181818;stroke-width:0.5;" x1="546.65" x2="709.5699" y1="39" y2="39"/><g data-visibility-modifier="PUBLIC_FIELD"><ellipse cx="556.65" cy="52.6484" fill="none" rx="3" ry="3" style="stroke:#038048;stroke-width:1;"/></g><text fill="#000000" font-family="sans-serif" font-size="14" lengthAdjust="spacing" textLength="138.9199" x="565.65" y="55.9951">constraintId : String</text><g data-visibility-modifier="PUBLIC_FIELD"><ellipse cx="556.65" cy="68.9453" fill="none" rx="3" ry="3" style="stroke:#038048;stroke-width:1;"/></g><text fill="#000000" font-family="sans-serif" font-size="14" lengthAdjust="spacing" textLength="86.6729" x="565.65" y="72.292">type : String</text><line style="stroke:#181818;stroke-width:0.5;" x1="546.65" x2="709.5699" y1="79.5938" y2="79.5938"/></g><!--class TimeSlot--><g class="entity" data-qualified-name="TimeSlot" data-source-line="50" id="ent0012"><rect fill="#F1F1F1" height="96.8906" rx="2.5" ry="2.5" style="stroke:#181818;stroke-width:0.5;" width="175.0713" x="741.58" y="156.75"/><ellipse cx="794.1039" cy="172.75" fill="#ADD1B2" rx="11" ry="11" style="stroke:#181818;stroke-width:1;"/><path d="M797.0727,178.3906 Q796.4946,178.6875 795.8539,178.8281 Q795.2133,178.9844 794.5102,178.9844 Q792.0102,178.9844 790.6821,177.3438 Q789.3696,175.6875 789.3696,172.5625 Q789.3696,169.4375 790.6821,167.7813 Q792.0102,166.125 794.5102,166.125 Q795.2133,166.125 795.8539,166.2813 Q796.5102,166.4375 797.0727,166.7344 L797.0727,169.4531 Q796.4477,168.875 795.8539,168.6094 Q795.2602,168.3281 794.6352,168.3281 Q793.2914,168.3281 792.6039,169.4063 Q791.9164,170.4688 791.9164,172.5625 Q791.9164,174.6563 792.6039,175.7344 Q793.2914,176.7969 794.6352,176.7969 Q795.2602,176.7969 795.8539,176.5313 Q796.4477,176.25 797.0727,175.6719 L797.0727,178.3906 Z " fill="#000000"/><text fill="#000000" font-family="sans-serif" font-size="14" lengthAdjust="spacing" textLength="61.5234" x="814.6039" y="177.5967">TimeSlot</text><line style="stroke:#181818;stroke-width:0.5;" x1="742.58" x2="915.6513" y1="188.75" y2="188.75"/><g data-visibility-modifier="PUBLIC_FIELD"><ellipse cx="752.58" cy="202.3984" fill="none" rx="3" ry="3" style="stroke:#038048;stroke-width:1;"/></g><text fill="#000000" font-family="sans-serif" font-size="14" lengthAdjust="spacing" textLength="93.6523" x="761.58" y="205.7451">slotId : String</text><g data-visibility-modifier="PUBLIC_FIELD"><ellipse cx="752.58" cy="218.6953" fill="none" rx="3" ry="3" style="stroke:#038048;stroke-width:1;"/></g><text fill="#000000" font-family="sans-serif" font-size="14" lengthAdjust="spacing" textLength="149.0713" x="761.58" y="222.042">startTime : DateTime</text><g data-visibility-modifier="PUBLIC_FIELD"><ellipse cx="752.58" cy="234.9922" fill="none" rx="3" ry="3" style="stroke:#038048;stroke-width:1;"/></g><text fill="#000000" font-family="sans-serif" font-size="14" lengthAdjust="spacing" textLength="142.8369" x="761.58" y="238.3389">endTime : DateTime</text><line style="stroke:#181818;stroke-width:0.5;" x1="742.58" x2="915.6513" y1="245.6406" y2="245.6406"/></g><!--reverse link User to Student--><g class="link" data-entity-1="ent0002" data-entity-2="ent0003" data-link-type="extension" data-source-line="56" id="lnk13"><path codeLine="56" d="M191.4702,239.6627 C150.3102,258.0827 119.49,279.88 95.11,322.78 C31.44,434.83 59.78,596.19 78.02,670.13" fill="none" id="User-backto-Student" style="stroke:#181818;stroke-width:1;"/><polygon fill="none" points="207.9,232.31,189.0193,234.1861,193.9211,245.1393,207.9,232.31" style="stroke:#181818;stroke-width:1;"/></g><!--reverse link User to Instructor--><g class="link" data-entity-1="ent0002" data-entity-2="ent0004" data-link-type="extension" data-source-line="57" id="lnk14"><path codeLine="57" d="M244.7333,277.9717 C232.4133,300.4317 227.15,310.01 215.9,330.52" fill="none" id="User-backto-Instructor" style="stroke:#181818;stroke-width:1;"/><polygon fill="none" points="253.39,262.19,239.4727,275.0861,249.9938,280.8572,253.39,262.19" style="stroke:#181818;stroke-width:1;"/></g><!--reverse link User to Administrator--><g class="link" data-entity-1="ent0002" data-entity-2="ent0005" data-link-type="extension" data-source-line="58" id="lnk15"><path codeLine="58" d="M323.4909,277.9694 C339.3809,306.9194 349.26,324.93 361.32,346.91" fill="none" id="User-backto-Administrator" style="stroke:#181818;stroke-width:1;"/><polygon fill="none" points="314.83,262.19,318.2311,280.8563,328.7507,275.0824,314.83,262.19" style="stroke:#181818;stroke-width:1;"/></g><!--reverse link User to DepartmentCoordinator--><g class="link" data-entity-1="ent0002" data-entity-2="ent0006" data-link-type="extension" data-source-line="59" id="lnk16"><path codeLine="59" d="M376.0753,258.3933 C431.0953,289.6133 487.57,321.68 532.11,346.96" fill="none" id="User-backto-DepartmentCoordinator" style="stroke:#181818;stroke-width:1;"/><polygon fill="none" points="360.42,249.51,373.1142,263.6117,379.0364,253.1748,360.42,249.51" style="stroke:#181818;stroke-width:1;"/></g><!--link Course to Student--><g class="link" data-entity-1="ent0007" data-entity-2="ent0003" data-link-type="association" data-source-line="61" id="lnk17"><path codeLine="61" d="M166.29,593.92 C150.14,618.18 130.76,647.3 115.46,670.29" fill="none" id="Course-Student" style="stroke:#181818;stroke-width:1;"/><text fill="#000000" font-family="sans-serif" font-size="13" lengthAdjust="spacing" textLength="43.5322" x="145.11" y="636.6369">enrolls</text><text fill="#000000" font-family="sans-serif" font-size="13" lengthAdjust="spacing" textLength="8.271" x="153.4949" y="613.5604">1</text><text fill="#000000" font-family="sans-serif" font-size="13" lengthAdjust="spacing" textLength="6.5" x="113.3685" y="659.4052">*</text></g><!--link Instructor to Course--><g class="link" data-entity-1="ent0004" data-entity-2="ent0007" data-link-type="association" data-source-line="62" id="lnk18"><path codeLine="62" d="M195.03,411.67 C195.61,436.84 196.38,469.64 197,496.3" fill="none" id="Instructor-Course" style="stroke:#181818;stroke-width:1;"/><text fill="#000000" font-family="sans-serif" font-size="13" lengthAdjust="spacing" textLength="51.2192" x="198.11" y="462.7469">teaches</text><text fill="#000000" font-family="sans-serif" font-size="13" lengthAdjust="spacing" textLength="8.271" x="186.5426" y="431.6885">1</text><text fill="#000000" font-family="sans-serif" font-size="13" lengthAdjust="spacing" textLength="6.5" x="190.4572" y="485.4555">*</text></g><!--link Exam to Course--><g class="link" data-entity-1="ent0009" data-entity-2="ent0007" data-link-type="association" data-source-line="63" id="lnk19"><path codeLine="63" d="M707.74,412.1 C701.86,414.84 695.93,417.41 690.11,419.68 C551.96,473.43 382.89,510.28 283.21,529.23" fill="none" id="Exam-Course" style="stroke:#181818;stroke-width:1;"/><text fill="#000000" font-family="sans-serif" font-size="13" lengthAdjust="spacing" textLength="8.271" x="692.0846" y="412.6155">1</text><text fill="#000000" font-family="sans-serif" font-size="13" lengthAdjust="spacing" textLength="8.271" x="290.8787" y="524.2921">1</text></g><!--link Exam to Classroom--><g class="link" data-entity-1="ent0009" data-entity-2="ent0008" data-link-type="association" data-source-line="64" id="lnk20"><path codeLine="64" d="M778.11,420.11 C778.11,443.85 778.11,472.45 778.11,496.2" fill="none" id="Exam-Classroom" style="stroke:#181818;stroke-width:1;"/><text fill="#000000" font-family="sans-serif" font-size="13" lengthAdjust="spacing" textLength="8.271" x="769.5907" y="439.7625">1</text><text fill="#000000" font-family="sans-serif" font-size="13" lengthAdjust="spacing" textLength="8.271" x="769.5902" y="485.6937">1</text></g><!--link Schedule to Exam--><g class="link" data-entity-1="ent0010" data-entity-2="ent0009" data-link-type="association" data-source-line="65" id="lnk21"><path codeLine="65" d="M664.42,245.9 C685.49,268.94 712.17,298.12 734.39,322.41" fill="none" id="Schedule-Exam" style="stroke:#181818;stroke-width:1;"/><text fill="#000000" font-family="sans-serif" font-size="13" lengthAdjust="spacing" textLength="8.271" x="661.5915" y="265.6614">1</text><text fill="#000000" font-family="sans-serif" font-size="13" lengthAdjust="spacing" textLength="6.5" x="721.8552" y="311.5669">*</text></g><!--link Constraint to Schedule--><g class="link" data-entity-1="ent0011" data-entity-2="ent0010" data-link-type="association" data-source-line="66" id="lnk22"><path codeLine="66" d="M628.11,88.04 C628.11,111.5 628.11,141.08 628.11,164.52" fill="none" id="Constraint-Schedule" style="stroke:#181818;stroke-width:1;"/><text fill="#000000" font-family="sans-serif" font-size="13" lengthAdjust="spacing" textLength="6.5" x="621.6717" y="107.8062">*</text><text fill="#000000" font-family="sans-serif" font-size="13" lengthAdjust="spacing" textLength="8.271" x="619.4945" y="153.9209">1</text></g><!--link TimeSlot to Exam--><g class="link" data-entity-1="ent0012" data-entity-2="ent0009" data-link-type="association" data-source-line="67" id="lnk23"><path codeLine="67" d="M814.22,254.08 C807.52,275.64 799.63,301.03 792.93,322.57" fill="none" id="TimeSlot-Exam" style="stroke:#181818;stroke-width:1;"/><text fill="#000000" font-family="sans-serif" font-size="13" lengthAdjust="spacing" textLength="8.271" x="803.6991" y="273.7325">1</text><text fill="#000000" font-family="sans-serif" font-size="13" lengthAdjust="spacing" textLength="6.5" x="788.6274" y="311.7494">*</text></g><?plantuml-src TLDDJyGW4BtpAqYFcZrutNWnNG-R60zMVy08h99GQ62gRjJ_xb0AssNhfSmyvhrXFYeCXC1VWlByct5-hINVyWTdtw8p4coXLmHrw7K21o9yEY_FGEzCZ7gYW_qo9YRL3aUfB2RXa9pzEK-g0JpsCQh0XR-t0VqeqEMt5RzIWG_G1bwrqNXSqRcJlRQQk43K3EvAvjPHDTekBrit-g1ILZ7PLSO4FjQzaVfmq68qUEo4y_5EMpmzf8rVxroVbADLwy808bKHcOGO9m2riojrtN_1hAJ8gZiB6FFlw8WkwbvrngsrkHFlIevcBZVCNYKN470CA-pMnQc0pdCMnQyKy3Ye5VvpVbZAJjPbPeynQguccbFDLjOeYKwRVFkpsUJjMo2dVLg0vyjnml_PZtapcfk6Kr1prPGjtt9bwJSmWItsTX4tCxSS5L2F0vl6bmDkSi0bd9U6bK4jL6CqMymWOZCnXxFIueht1m00?></g></svg>